<?xml version="1.0" encoding="UTF-8" standalone="no"?>
<!-- Created with Inkscape (http://www.inkscape.org/) -->

<svg
   xmlns:dc="http://purl.org/dc/elements/1.1/"
   xmlns:cc="http://creativecommons.org/ns#"
   xmlns:rdf="http://www.w3.org/1999/02/22-rdf-syntax-ns#"
   xmlns:svg="http://www.w3.org/2000/svg"
   xmlns="http://www.w3.org/2000/svg"
   xmlns:sodipodi="http://sodipodi.sourceforge.net/DTD/sodipodi-0.dtd"
   xmlns:inkscape="http://www.inkscape.org/namespaces/inkscape"
   version="1.1"
   id="svg1148"
   width="512"
   height="512"
   viewBox="0 0 512 512"
   sodipodi:docname="neu.svg"
   inkscape:version="0.92.2 5c3e80d, 2017-08-06"
   inkscape:export-xdpi="109"
   inkscape:export-ydpi="109">
  <metadata
     id="metadata1154">
    <rdf:RDF>
      <cc:Work
         rdf:about="">
        <dc:format>image/svg+xml</dc:format>
        <dc:type
           rdf:resource="http://purl.org/dc/dcmitype/StillImage" />
        <dc:title></dc:title>
      </cc:Work>
    </rdf:RDF>
  </metadata>
  <defs
     id="defs1152" />
  <sodipodi:namedview
     pagecolor="#000000"
     bordercolor="#666666"
     borderopacity="1"
     objecttolerance="10"
     gridtolerance="10"
     guidetolerance="10"
     inkscape:pageopacity="0"
     inkscape:pageshadow="2"
     inkscape:window-width="1920"
     inkscape:window-height="1127"
     id="namedview1150"
     showgrid="false"
     inkscape:zoom="1.3304969"
     inkscape:cx="215.65539"
     inkscape:cy="83.064673"
     inkscape:window-x="0"
     inkscape:window-y="0"
     inkscape:window-maximized="1"
     inkscape:current-layer="g1839" />
  <g
     inkscape:groupmode="layer"
     id="layer5"
     inkscape:label="punkt"
     style="display:inline"
     sodipodi:insensitive="true">
    <circle
       style="opacity:1;fill:#dc4444;fill-opacity:1;fill-rule:evenodd;stroke:none;stroke-width:10.54784775;stroke-linecap:square;stroke-linejoin:round;stroke-miterlimit:4;stroke-dasharray:none;stroke-opacity:1"
       id="path5174"
       cx="250"
       cy="262"
       r="225" />
  </g>
  <g
     inkscape:groupmode="layer"
     id="layer4"
     inkscape:label="trace"
     transform="translate(0,-434)"
     style="display:none"
     sodipodi:insensitive="true">
    <path
       style="color:#000000;font-style:normal;font-variant:normal;font-weight:normal;font-stretch:normal;font-size:medium;line-height:normal;font-family:sans-serif;font-variant-ligatures:normal;font-variant-position:normal;font-variant-caps:normal;font-variant-numeric:normal;font-variant-alternates:normal;font-feature-settings:normal;text-indent:0;text-align:start;text-decoration:none;text-decoration-line:none;text-decoration-style:solid;text-decoration-color:#000000;letter-spacing:normal;word-spacing:normal;text-transform:none;writing-mode:lr-tb;direction:ltr;text-orientation:mixed;dominant-baseline:auto;baseline-shift:baseline;text-anchor:start;white-space:normal;shape-padding:0;clip-rule:nonzero;display:inline;overflow:visible;visibility:visible;opacity:1;isolation:auto;mix-blend-mode:normal;color-interpolation:sRGB;color-interpolation-filters:linearRGB;solid-color:#000000;solid-opacity:1;vector-effect:none;fill:#ffffff;fill-opacity:1;fill-rule:evenodd;stroke:#00ff03;stroke-width:10;stroke-linecap:butt;stroke-linejoin:miter;stroke-miterlimit:4;stroke-dasharray:none;stroke-dashoffset:0;stroke-opacity:1;color-rendering:auto;image-rendering:auto;shape-rendering:auto;text-rendering:auto;enable-background:accumulate"
       d="m 73.521484,123.88672 c 0.250993,0.30345 0.470324,0.68165 0.732422,1.00781 9.397635,11.57167 16.545559,22.71263 26.089844,36.61133 12.27683,18.39505 25.22588,37.30655 37.86719,55.93555 12.27141,20.27346 21.43017,39.83595 29.96094,57.73632 1.11687,4.33459 2.48642,7.53662 4.03515,11.4336 1.07954,4.57588 3.04672,7.44617 3.69727,8.99023 l -0.0391,-0.0957 c 1.65002,4.05869 3.63581,6.7789 4.09571,7.91016 l 0.17578,0.43164 0.22266,0.4082 c 1.73987,3.18429 3.07526,5.28183 4.52343,8.2168 2.06739,3.02033 4.34241,6.68694 6.61914,8.67578 1.34112,1.83493 4.14485,4.76088 7.24145,9.11327 6.56481,9.36884 11.63836,19.6551 13.42258,24.31255 3.73338,8.82662 6.7394,18.04086 9.91994,26.5664 3.71276,9.42713 7.07927,21.00113 9.45703,31.51368 3.71106,19.2681 4.7465,40.52348 5.14429,57.57023 -0.1578,6.66983 -0.4875,10.61338 -1.1328,15.32227 -0.0657,0.16254 -0.23323,0.32756 -0.28321,0.48632 -0.13128,10.06636 17.34803,15.45078 16.50017,-3.63088 -0.0161,-0.4244 0.0487,-0.476 0.10157,-0.63672 0.091,-27.27982 -0.16385,-47.94818 3.21493,-73.71283 1.28467,-11.88406 2.50974,-22.2616 3.76962,-30.41211 l 0.24219,-0.48046 0.17578,-0.50586 c 1.0954,-5.95237 5.49845,-12.70007 8.82028,-17.14063 5.00574,-6.3766 9.06164,-11.25874 14.11914,-18.39453 0.88675,-1.44645 0.75182,-0.89473 1.62696,-2.23047 0.9664,-1.47664 1.58474,-2.52603 2.54297,-4.00781 4.87677,-5.99581 6.37465,-8.01517 10.23437,-12.05859 1.55998,-1.41522 2.52326,-2.14929 3.09766,-2.9668 0.78977,-0.74328 1.63181,-1.64556 2.46484,-2.79102 8.37635,-9.37722 21.01072,-32.833 23.61133,-38.3789 2.52507,-4.88994 22.84654,-39.41835 36.61719,-59.09766 6.94477,-10.22399 17.3911,-22.59444 26.17275,-32.18376 2.29015,-3.14458 30.80847,-29.77655 44.11045,-43.90218 -0.17039,0.15374 -0.32089,0.2966 -0.49414,0.45117 l 1.03516,-1.11328 c -0.18251,0.23724 -0.36038,0.4417 -0.54102,0.66211 20.66706,-19.9448 12.20395,-33.94238 2.95898,-25.42773 -2.31401,2.11975 -4.24349,4.00947 -6.15429,6.36133 -21.11022,17.59396 -46.01551,42.96135 -58.60547,58.73633 -21.48425,26.94258 -30.25514,41.38521 -49.44927,71.44371 -2.84094,3.52301 -14.52893,25.68453 -22.04878,38.70665 l -0.39844,0.48242 -0.32031,0.53515 c -0.87463,1.46604 -2.32368,3.4148 -3.78125,6.18164 -3.69575,5.73078 -7.41028,8.11964 -14.87305,13.93551 -1.88656,0.69662 0,0 -4.45502,1.56087 -3.04374,0.93051 -3.70222,0.96109 -7.58978,0.12115 -1.42138,-0.0923 -1.64176,-0.73073 -3.15832,-0.85968 -1.98527,-4.34566 -2.23534,-8.59954 -2.47266,-12.16207 -0.15997,-12.26407 1.08724,-26.07817 1.10648,-37.69263 0.18218,-10.91295 -0.34028,-16.03658 -0.51068,-28.09253 l -1.4992,-31.37379 c 4.76239,-47.11787 -14.44583,-30.16497 -14.43545,-25.25754 0.01,10.7032 -0.37543,47.68479 -0.3758,56.92235 l 0.004,0.0957 c -0.47922,13.63372 -0.19959,25.53598 -0.58779,39.83789 v 24.70508 c -0.33728,5.55211 -1.32196,9.24087 -2.85547,12.83398 l -0.40039,0.93946 c -0.3746,0.55504 -0.40305,0.54806 -0.99024,1.16015 l -1.31445,1.00196 c -1.03072,0.7958 -1.49562,1.24372 -3.6875,1.40039 -0.49223,0.0598 -0.87911,-0.0272 -1.32422,0.004 -3.11965,0.0202 -5.86002,-0.37465 -10.41602,-0.5664 -4.25205,-0.38992 -8.19291,-0.65147 -11.73828,-1.80274 -2.17427,-0.82558 -3.32302,-1.81936 -4.8125,-2.92383 -0.99472,-0.6378 -1.77528,-1.22711 -2.50586,-1.98047 -2.81713,-2.30187 -5.00526,-5.76644 -7.00589,-8.00976 -1.51898,-2.96253 -2.8967,-5.29724 -4.16601,-7.60547 0.0806,0.1887 0.16295,0.36565 0.24219,0.56055 l -0.39844,-0.83985 c 0.0496,0.0908 0.10627,0.18842 0.15625,0.2793 -1.5974,-3.74103 -3.41571,-6.27465 -3.85352,-7.35156 l -0.0176,-0.0469 -0.0215,-0.0469 c -1.66092,-3.94216 -2.74174,-5.36366 -2.99805,-6.79297 l -0.14257,-0.79883 -0.29883,-0.75781 c -4.37153,-15.11797 -9.81346,-26.86045 -16.46875,-40.98828 l -0.20508,-0.47852 -0.26367,-0.44726 c -16.3314,-26.09693 -33.03081,-56.85703 -51.5625,-80.08203 v 0 C 109.00577,143.83148 98.562834,129.31942 87.361698,115.24807 71.564249,96.36709 69.268167,120.08793 73.521484,123.88672 Z M 253.51953,328.92578 c 1.67698,0.74315 3.96647,1.47519 6.48242,1.80078 3.11906,0.97542 5.75735,1.00301 8.00782,0.95703 0.32891,-0.007 0.58384,-0.0152 0.90039,-0.0234 -0.0878,0.13246 -0.21436,0.30696 -0.27344,0.40625 -6.67225,6.93293 -9.01475,11.16817 -12.55657,16.23823 -5.37108,8.17595 -9.27436,14.75591 -12.06642,22.59366 0.0888,-0.19377 0.16855,-0.38305 0.26953,-0.58399 -1.05809,2.12603 -1.71749,4.54803 -2.36544,6.77545 -1.0068,3.66226 -1.02872,7.09779 -1.18924,10.10145 -3.09707,-8.0928 -5.27145,-16.45296 -7.64846,-23.31446 -2.54193,-6.67879 -4.56048,-11.96081 -6.97656,-17.67383 -1.59938,-4.0977 -3.52432,-7.06936 -5.76954,-11.64257 0.19329,0.0231 0.2624,0.013 0.008,-0.11133 1.12508,0.77559 5.28635,1.69018 6.59273,1.71873 2.89596,0.0636 3.50757,-0.0287 8.88383,-0.32221 6.01088,-0.55437 11.4497,-2.41311 14.21484,-4.44726 1.26307,-0.65219 2.43234,-1.49911 3.48633,-2.47266 z"
       transform="translate(0,434)"
       id="path1159"
       inkscape:connector-curvature="0"
       sodipodi:nodetypes="cccccccccccccccccccccccccccccccccccccccccccccccccccccccccccccccccccccccccccccccccccccccccccccccccccccccccccc" />
  </g>
  <g
     style="display:inline"
     transform="translate(0,-434)"
     inkscape:label="trace Kopie 1"
     id="g1839"
     inkscape:groupmode="layer">
    <path
       style="color:#000000;font-style:normal;font-variant:normal;font-weight:normal;font-stretch:normal;font-size:medium;line-height:normal;font-family:sans-serif;font-variant-ligatures:normal;font-variant-position:normal;font-variant-caps:normal;font-variant-numeric:normal;font-variant-alternates:normal;font-feature-settings:normal;text-indent:0;text-align:start;text-decoration:none;text-decoration-line:none;text-decoration-style:solid;text-decoration-color:#000000;letter-spacing:normal;word-spacing:normal;text-transform:none;writing-mode:lr-tb;direction:ltr;text-orientation:mixed;dominant-baseline:auto;baseline-shift:baseline;text-anchor:start;white-space:normal;shape-padding:0;clip-rule:nonzero;display:inline;overflow:visible;visibility:visible;opacity:1;isolation:auto;mix-blend-mode:normal;color-interpolation:sRGB;color-interpolation-filters:linearRGB;solid-color:#000000;solid-opacity:1;vector-effect:none;fill:#ffffff;fill-opacity:1;fill-rule:evenodd;stroke:#fffffb;stroke-width:10;stroke-linecap:butt;stroke-linejoin:miter;stroke-miterlimit:4;stroke-dasharray:none;stroke-dashoffset:0;stroke-opacity:1;color-rendering:auto;image-rendering:auto;shape-rendering:auto;text-rendering:auto;enable-background:accumulate"
       d="m 75.416476,128.11649 c 0.761399,1.00889 15.382989,19.49065 24.927274,33.38935 12.27683,18.39505 25.22588,37.30655 37.86719,55.93555 12.27141,20.27346 21.43017,39.83595 29.96094,57.73632 1.11687,4.33459 2.48642,7.53662 4.03515,11.4336 1.07954,4.57588 3.04672,7.44617 3.69727,8.99023 l -0.0391,-0.0957 c 1.65002,4.05869 3.63581,6.7789 4.09571,7.91016 l 0.17578,0.43164 0.22266,0.4082 c 1.73986,3.18429 3.07526,5.28183 4.52343,8.2168 2.06739,3.02033 4.34241,6.68694 6.61914,8.67578 1.34112,1.83493 4.14559,4.76089 7.24219,9.11328 6.56481,9.36884 11.63766,19.65505 13.42188,24.3125 3.73338,8.82662 6.73938,18.04087 9.91992,26.5664 3.71276,9.42713 7.07927,21.00113 9.45703,31.51368 3.71106,19.2681 3.21879,40.58999 3.61658,57.63674 0.11604,7.50513 0.13643,6.28502 0.2434,11.15195 5.84654,0.3751 13.1437,0.67056 18.09231,0.48045 1.09989,-27.56568 -1.27101,-51.29321 1.59266,-73.87065 1.28467,-11.88406 2.50965,-22.2616 3.76953,-30.41211 l 0.24219,-0.48046 0.17578,-0.50586 c 1.0954,-5.95237 5.49848,-12.70007 8.82031,-17.14063 5.00574,-6.3766 9.06164,-11.25874 14.11914,-18.39453 0.88675,-1.44645 0.75182,-0.89473 1.62696,-2.23047 0.9664,-1.47664 1.58474,-2.52603 2.54297,-4.00781 4.87677,-5.99581 6.37465,-8.01517 10.23437,-12.05859 1.55998,-1.41522 2.52326,-2.14929 3.09766,-2.9668 0.78977,-0.74328 1.63181,-1.64556 2.46484,-2.79102 8.37635,-9.37722 21.01072,-32.833 23.61133,-38.3789 2.52507,-4.88994 22.84654,-39.41835 36.61719,-59.09766 6.94477,-10.22399 17.39022,-22.59427 26.17187,-32.18359 13.85434,-16.09403 32.2935,-29.74285 45.5904,-45.5415 -2.91416,-4.39287 -6.779,-9.9442 -9.99446,-14.12159 -20.89276,17.55391 -40.89257,39.9027 -53.28539,55.43067 -21.48425,26.94257 -30.25509,41.38485 -49.44922,71.44335 -2.84094,3.52301 -14.52898,25.68492 -22.04883,38.70704 l -0.39844,0.48242 -0.32031,0.53515 c -0.87463,1.46604 -2.32368,3.4148 -3.78125,6.18164 -3.69575,5.73078 -7.41028,8.11968 -14.87305,13.93555 -1.88656,0.69662 -5e-5,-3.2e-4 -4.45507,1.56055 -3.04374,0.93051 -3.70229,0.96103 -7.58985,0.12109 -1.42138,-0.0923 -1.64164,-0.73042 -3.1582,-0.85937 -1.98527,-4.34566 -2.23534,-8.59958 -2.47266,-12.16211 -0.15997,-12.26407 1.08819,-26.0789 1.10742,-37.69336 0.18219,-10.91295 -0.34131,-16.03585 -0.51171,-28.0918 l -1.5,-31.37305 c 4.76239,-47.11787 -14.44398,-30.16524 -14.4336,-25.25781 0.01,10.7032 -0.37658,47.68432 -0.37695,56.92188 l 0.004,0.0957 c -0.47922,13.63372 -0.1997,25.53598 -0.58789,39.83789 v 24.70508 c -0.33728,5.55211 -1.32196,9.24087 -2.85547,12.83398 l -0.40039,0.93946 c -0.3746,0.55504 -0.40305,0.54806 -0.99024,1.16015 l -1.31445,1.00196 c -1.03072,0.7958 -1.49562,1.24372 -3.6875,1.40039 -0.49223,0.0598 -0.87911,-0.0273 -1.32422,0.004 -3.11965,0.0202 -5.86002,-0.37465 -10.41602,-0.5664 -4.25205,-0.38992 -8.19291,-0.65147 -11.73828,-1.80274 -2.17427,-0.82558 -3.32302,-1.81936 -4.8125,-2.92383 -0.99472,-0.6378 -1.77528,-1.2271 -2.50586,-1.98047 -2.81713,-2.30187 -5.00523,-5.76644 -7.00586,-8.00976 -1.51898,-2.96253 -2.8967,-5.29724 -4.16601,-7.60547 0.0806,0.1887 0.16295,0.36565 0.24219,0.56055 l -0.39844,-0.83985 c 0.0496,0.0908 0.10627,0.18842 0.15625,0.2793 -1.5974,-3.74103 -3.41571,-6.27465 -3.85352,-7.35156 l -0.0176,-0.0469 -0.0215,-0.0469 c -1.66092,-3.94216 -2.74174,-5.36366 -2.99805,-6.79297 l -0.14257,-0.79883 -0.29883,-0.75781 C 183.12652,265.8 177.68459,254.05752 171.0293,239.92969 l -0.20508,-0.47852 -0.26367,-0.44726 c -16.3314,-26.09693 -33.03081,-56.85704 -51.5625,-80.08203 -11.31721,-16.77981 -31.139626,-42.91386 -32.234615,-44.33816 -4.600939,5.0014 -11.346959,13.53277 -11.346959,13.53277 z M 253.51953,328.92578 c 1.67698,0.74315 3.96647,1.47519 6.48242,1.80078 3.11906,0.97542 5.75735,1.00301 8.00782,0.95703 0.32891,-0.007 0.58384,-0.0152 0.90039,-0.0234 -0.0878,0.13246 -0.21436,0.30696 -0.27344,0.40625 -6.67225,6.93293 -9.01482,11.16822 -12.55664,16.23828 -5.37108,8.17595 -9.27435,14.756 -12.06641,22.59375 0.0888,-0.19377 0.16855,-0.38305 0.26953,-0.58399 -1.05809,2.12603 -1.71728,4.54797 -2.36523,6.77539 -1.0068,3.66226 -1.02893,7.09791 -1.18945,10.10157 -3.09707,-8.0928 -5.27143,-16.45296 -7.64844,-23.31446 -2.54193,-6.67879 -4.56048,-11.9608 -6.97656,-17.67383 -1.59938,-4.09769 -3.52432,-7.06936 -5.76954,-11.64257 0.19329,0.0231 0.26222,0.013 0.008,-0.11133 1.12508,0.77559 5.28737,1.6902 6.59375,1.71875 2.89596,0.0636 3.50655,-0.0288 8.88281,-0.32227 6.01088,-0.55437 11.4497,-2.41311 14.21484,-4.44726 1.26307,-0.65219 2.43234,-1.49911 3.48633,-2.47266 z"
       transform="translate(0,434)"
       id="path1837"
       inkscape:connector-curvature="0"
       sodipodi:nodetypes="cccccccccccccccccccccccccccccccccccccccccccccccccccccccccccccccccccccccccccccccccccccccccccccccccccc" />
  </g>
  <g
     style="display:none"
     transform="translate(0,-434)"
     inkscape:label="trace Kopie"
     id="g1828"
     inkscape:groupmode="layer" />
</svg>
