<svg width="32" height="47" viewBox="0 0 32 47" version="1.1" xmlns="http://www.w3.org/2000/svg" xmlns:xlink="http://www.w3.org/1999/xlink">
<title>Logo</title>
<desc>Created using Figma</desc>
<g id="Canvas" transform="translate(316 -589)">
<g id="Logo">
<g id="Fill 1">
<use xlink:href="#path0_fill" transform="translate(-311.638 598.802)" fill="#FF9100"/>
</g>
<g id="Fill 2">
<use xlink:href="#path1_fill" transform="translate(-311.638 598.802)" fill="#FFDD00"/>
</g>
<g id="Fill 3">
<use xlink:href="#path2_fill" transform="translate(-314.948 595.469)" fill="#FFFFFF"/>
</g>
<g id="Stroke 4">
<use xlink:href="#path3_stroke" transform="translate(-314.948 595.469)"/>
</g>
<g id="Fill 6">
<use xlink:href="#path4_fill" transform="translate(-311.534 590.052)" fill="#FFFFFF"/>
</g>
<g id="Group 11">
<g id="Stroke 7">
<use xlink:href="#path5_stroke" transform="translate(-311.534 590.052)" fill="#050505"/>
</g>
<g id="Stroke 9">
<use xlink:href="#path6_stroke" transform="translate(-313.707 598.802)"/>
</g>
</g>
<g id="Fill 12">
<use xlink:href="#path7_fill" transform="translate(-314.224 609.01)" fill="#FFFFFF"/>
</g>
<g id="Stroke 13">
<use xlink:href="#path8_stroke" transform="translate(-314.224 609.01)"/>
</g>
</g>
</g>
<defs>
<path id="path0_fill" fill-rule="evenodd" d="M 11.5862 0.0702083L 0 0L 5.68966 36.1458L 6.93103 36.1458L 18.3103 36.1458L 19.5517 36.1458L 25.2414 0L 11.5862 0.0702083Z"/>
<path id="path1_fill" fill-rule="evenodd" d="M 11.5862 0.0702083L 0 0L 5.68966 36.1458L 6.93103 36.1458L 15.4138 36.1458L 16.6552 36.1458L 22.3448 0L 11.5862 0.0702083Z"/>
<path id="path2_fill" fill-rule="evenodd" d="M 0 3.33333L 29.8966 3.33333L 29.8966 0L 0 0L 0 3.33333Z"/>
<path id="path3_stroke" d="M 0 3.33333L -0.775862 3.33333L -0.775862 4.1092L 0 4.1092L 0 3.33333ZM 29.8966 3.33333L 29.8966 4.1092L 30.6724 4.1092L 30.6724 3.33333L 29.8966 3.33333ZM 29.8966 0L 30.6724 0L 30.6724 -0.775862L 29.8966 -0.775862L 29.8966 0ZM 0 0L 0 -0.775862L -0.775862 -0.775862L -0.775862 0L 0 0ZM 0 4.1092L 29.8966 4.1092L 29.8966 2.55747L 0 2.55747L 0 4.1092ZM 30.6724 3.33333L 30.6724 0L 29.1207 0L 29.1207 3.33333L 30.6724 3.33333ZM 29.8966 -0.775862L 0 -0.775862L 0 0.775862L 29.8966 0.775862L 29.8966 -0.775862ZM -0.775862 0L -0.775862 3.33333L 0.775862 3.33333L 0.775862 0L -0.775862 0Z"/>
<path id="path4_fill" fill-rule="evenodd" d="M 20.6897 0L 13.5517 0L 9.31034 0L 2.17241 0L 0 5L 9.31034 5L 13.5517 5L 22.8621 5L 20.6897 0Z"/>
<path id="path5_stroke" d="M 20.6897 0L 21.4013 -0.309177L 21.1985 -0.775862L 20.6897 -0.775862L 20.6897 0ZM 2.17241 0L 2.17241 -0.775862L 1.66358 -0.775862L 1.46082 -0.309177L 2.17241 0ZM 0 5L -0.711598 4.69082L -1.18303 5.77586L 0 5.77586L 0 5ZM 22.8621 5L 22.8621 5.77586L 24.0451 5.77586L 23.5737 4.69082L 22.8621 5ZM 20.6897 -0.775862L 13.5517 -0.775862L 13.5517 0.775862L 20.6897 0.775862L 20.6897 -0.775862ZM 13.5517 -0.775862L 9.31034 -0.775862L 9.31034 0.775862L 13.5517 0.775862L 13.5517 -0.775862ZM 9.31034 -0.775862L 2.17241 -0.775862L 2.17241 0.775862L 9.31034 0.775862L 9.31034 -0.775862ZM 1.46082 -0.309177L -0.711598 4.69082L 0.711598 5.30918L 2.88401 0.309177L 1.46082 -0.309177ZM 0 5.77586L 9.31034 5.77586L 9.31034 4.22414L 0 4.22414L 0 5.77586ZM 9.31034 5.77586L 13.5517 5.77586L 13.5517 4.22414L 9.31034 4.22414L 9.31034 5.77586ZM 13.5517 5.77586L 22.8621 5.77586L 22.8621 4.22414L 13.5517 4.22414L 13.5517 5.77586ZM 23.5737 4.69082L 21.4013 -0.309177L 19.9781 0.309177L 22.1505 5.30918L 23.5737 4.69082Z"/>
<path id="path6_stroke" d="M 13.6552 0.0702083L 13.6512 0.846101L 13.6592 0.84606L 13.6552 0.0702083ZM 0 0L 0.00398906 -0.775852L -0.908279 -0.780542L -0.766425 0.120642L 0 0ZM 5.68966 36.1458L 4.92323 36.2665L 5.02637 36.9217L 5.68966 36.9217L 5.68966 36.1458ZM 21.6207 36.1458L 21.6207 36.9217L 22.284 36.9217L 22.3871 36.2665L 21.6207 36.1458ZM 27.3103 0L 28.0768 0.120642L 28.2186 -0.780542L 27.3064 -0.775852L 27.3103 0ZM 13.6592 -0.705644L 0.00398906 -0.775852L -0.00398906 0.775852L 13.6512 0.84606L 13.6592 -0.705644ZM -0.766425 0.120642L 4.92323 36.2665L 6.45608 36.0252L 0.766425 -0.120642L -0.766425 0.120642ZM 5.68966 36.9217L 6.93103 36.9217L 6.93103 35.37L 5.68966 35.37L 5.68966 36.9217ZM 6.93103 36.9217L 20.3793 36.9217L 20.3793 35.37L 6.93103 35.37L 6.93103 36.9217ZM 20.3793 36.9217L 21.6207 36.9217L 21.6207 35.37L 20.3793 35.37L 20.3793 36.9217ZM 22.3871 36.2665L 28.0768 0.120642L 26.5439 -0.120642L 20.8543 36.0252L 22.3871 36.2665ZM 27.3064 -0.775852L 13.6512 -0.705644L 13.6592 0.84606L 27.3143 0.775852L 27.3064 -0.775852Z"/>
<path id="path7_fill" fill-rule="evenodd" d="M 28.2414 0L 14.6109 0L 13.6304 0L 0 0L 2.54959 14.375L 14.1207 14.2497L 25.6918 14.375L 28.2414 0Z"/>
<path id="path8_stroke" d="M 28.2414 0L 29.0053 0.135494L 29.167 -0.775862L 28.2414 -0.775862L 28.2414 0ZM 0 0L 0 -0.775862L -0.92558 -0.775862L -0.763939 0.135494L 0 0ZM 2.54959 14.375L 1.78565 14.5105L 1.90048 15.1579L 2.55799 15.1508L 2.54959 14.375ZM 14.1207 14.2497L 14.1291 13.4739L 14.1207 13.4738L 14.1123 13.4739L 14.1207 14.2497ZM 25.6918 14.375L 25.6834 15.1508L 26.3409 15.1579L 26.4557 14.5105L 25.6918 14.375ZM 28.2414 -0.775862L 14.6109 -0.775862L 14.6109 0.775862L 28.2414 0.775862L 28.2414 -0.775862ZM 14.6109 -0.775862L 13.6304 -0.775862L 13.6304 0.775862L 14.6109 0.775862L 14.6109 -0.775862ZM 13.6304 -0.775862L 0 -0.775862L 0 0.775862L 13.6304 0.775862L 13.6304 -0.775862ZM -0.763939 0.135494L 1.78565 14.5105L 3.31353 14.2395L 0.763939 -0.135494L -0.763939 0.135494ZM 2.55799 15.1508L 14.1291 15.0255L 14.1123 13.4739L 2.54118 13.5992L 2.55799 15.1508ZM 14.1123 15.0255L 25.6834 15.1508L 25.7002 13.5992L 14.1291 13.4739L 14.1123 15.0255ZM 26.4557 14.5105L 29.0053 0.135494L 27.4774 -0.135494L 24.9279 14.2395L 26.4557 14.5105Z"/>
</defs>
</svg>