<?xml version="1.0" encoding="utf-8"?>
<!-- Generator: Adobe Illustrator 22.0.0, SVG Export Plug-In . SVG Version: 6.00 Build 0)  -->
<svg version="1.1" id="Layer_1" xmlns="http://www.w3.org/2000/svg" xmlns:xlink="http://www.w3.org/1999/xlink" x="0px" y="0px"
	 viewBox="0 0 1000 1000" style="enable-background:new 0 0 1000 1000;" xml:space="preserve">
<style type="text/css">
	.st0{fill:#FF813F;}
	.st1{fill:#FFDD00;}
	.st2{fill:#FFFFFF;}
	.st3{fill:#FF9100;}
	.st4{fill:#050505;}
	.st5{fill:#EEEEEE;}
	.st6{clip-path:url(#SVGID_2_);}
	.st7{clip-path:url(#SVGID_4_);}
	.st8{clip-path:url(#SVGID_6_);}
	.st9{clip-path:url(#SVGID_8_);}
	.st10{clip-path:url(#SVGID_10_);}
	.st11{clip-path:url(#SVGID_12_);}
	.st12{clip-path:url(#SVGID_14_);}
	.st13{clip-path:url(#SVGID_16_);}
	.st14{clip-path:url(#SVGID_18_);}
	.st15{clip-path:url(#SVGID_20_);}
	.st16{clip-path:url(#SVGID_22_);}
	.st17{clip-path:url(#SVGID_24_);}
	.st18{clip-path:url(#SVGID_26_);}
	.st19{opacity:0.1;clip-path:url(#SVGID_28_);}
	.st20{clip-path:url(#SVGID_30_);}
	.st21{opacity:0.1;clip-path:url(#SVGID_32_);}
	.st22{clip-path:url(#SVGID_34_);}
	.st23{clip-path:url(#SVGID_36_);}
	.st24{clip-path:url(#SVGID_38_);}
	.st25{clip-path:url(#SVGID_40_);}
	.st26{clip-path:url(#SVGID_42_);}
	.st27{clip-path:url(#SVGID_44_);}
	.st28{clip-path:url(#SVGID_46_);}
	.st29{clip-path:url(#SVGID_48_);}
	.st30{clip-path:url(#SVGID_50_);}
	.st31{clip-path:url(#SVGID_52_);}
	.st32{clip-path:url(#SVGID_54_);}
	.st33{clip-path:url(#SVGID_56_);}
	.st34{clip-path:url(#SVGID_58_);}
	.st35{clip-path:url(#SVGID_60_);}
	.st36{clip-path:url(#SVGID_62_);}
	.st37{opacity:0.2;clip-path:url(#SVGID_64_);}
	.st38{clip-path:url(#SVGID_66_);}
	.st39{opacity:0.2;clip-path:url(#SVGID_68_);}
	.st40{clip-path:url(#SVGID_70_);}
	.st41{clip-path:url(#SVGID_72_);}
	.st42{clip-path:url(#SVGID_74_);}
	.st43{clip-path:url(#SVGID_76_);}
	.st44{clip-path:url(#SVGID_78_);}
	.st45{clip-path:url(#SVGID_80_);}
	.st46{clip-path:url(#SVGID_82_);}
	.st47{clip-path:url(#SVGID_84_);}
	.st48{clip-path:url(#SVGID_86_);}
	.st49{clip-path:url(#SVGID_88_);}
	.st50{clip-path:url(#SVGID_90_);}
	.st51{clip-path:url(#SVGID_92_);}
	.st52{clip-path:url(#SVGID_94_);}
	.st53{clip-path:url(#SVGID_96_);}
	.st54{clip-path:url(#SVGID_98_);}
	.st55{opacity:0.2;clip-path:url(#SVGID_100_);}
	.st56{clip-path:url(#SVGID_102_);}
	.st57{opacity:0.2;clip-path:url(#SVGID_104_);}
	.st58{clip-path:url(#SVGID_106_);}
	.st59{clip-path:url(#SVGID_108_);}
	.st60{clip-path:url(#SVGID_110_);}
	.st61{clip-path:url(#SVGID_112_);}
	.st62{clip-path:url(#SVGID_114_);}
	.st63{clip-path:url(#SVGID_116_);}
	.st64{clip-path:url(#SVGID_118_);}
	.st65{clip-path:url(#SVGID_120_);}
	.st66{clip-path:url(#SVGID_122_);}
	.st67{clip-path:url(#SVGID_124_);}
	.st68{clip-path:url(#SVGID_126_);}
	.st69{clip-path:url(#SVGID_128_);}
	.st70{clip-path:url(#SVGID_130_);}
	.st71{clip-path:url(#SVGID_132_);}
	.st72{clip-path:url(#SVGID_134_);}
	.st73{clip-path:url(#SVGID_136_);}
	.st74{clip-path:url(#SVGID_138_);}
	.st75{clip-path:url(#SVGID_140_);}
	.st76{clip-path:url(#SVGID_142_);}
	.st77{clip-path:url(#SVGID_144_);}
	.st78{clip-path:url(#SVGID_146_);}
	.st79{clip-path:url(#SVGID_148_);}
	.st80{clip-path:url(#SVGID_150_);}
	.st81{clip-path:url(#SVGID_152_);}
	.st82{clip-path:url(#SVGID_154_);}
	.st83{clip-path:url(#SVGID_156_);}
	.st84{clip-path:url(#SVGID_158_);}
	.st85{clip-path:url(#SVGID_160_);}
	.st86{clip-path:url(#SVGID_162_);}
	.st87{clip-path:url(#SVGID_164_);}
	.st88{clip-path:url(#SVGID_166_);}
	.st89{clip-path:url(#SVGID_168_);}
	.st90{clip-path:url(#SVGID_170_);}
	.st91{clip-path:url(#SVGID_172_);}
	.st92{clip-path:url(#SVGID_174_);}
	.st93{clip-path:url(#SVGID_176_);}
	.st94{clip-path:url(#SVGID_178_);}
	.st95{clip-path:url(#SVGID_180_);}
	.st96{clip-path:url(#SVGID_182_);}
	.st97{clip-path:url(#SVGID_184_);}
	.st98{clip-path:url(#SVGID_186_);}
	.st99{clip-path:url(#SVGID_188_);}
	.st100{clip-path:url(#SVGID_190_);}
	.st101{opacity:0.1;clip-path:url(#SVGID_192_);}
	.st102{clip-path:url(#SVGID_194_);}
	.st103{opacity:0.1;clip-path:url(#SVGID_196_);}
	.st104{clip-path:url(#SVGID_198_);}
	.st105{clip-path:url(#SVGID_200_);}
	.st106{clip-path:url(#SVGID_202_);}
	.st107{clip-path:url(#SVGID_204_);}
	.st108{clip-path:url(#SVGID_206_);}
	.st109{clip-path:url(#SVGID_208_);}
	.st110{clip-path:url(#SVGID_210_);}
	.st111{clip-path:url(#SVGID_212_);}
	.st112{clip-path:url(#SVGID_214_);}
	.st113{clip-path:url(#SVGID_216_);}
	.st114{clip-path:url(#SVGID_218_);}
	.st115{clip-path:url(#SVGID_220_);}
	.st116{clip-path:url(#SVGID_222_);}
	.st117{clip-path:url(#SVGID_224_);}
	.st118{clip-path:url(#SVGID_226_);}
	.st119{clip-path:url(#SVGID_228_);}
	.st120{clip-path:url(#SVGID_230_);}
	.st121{clip-path:url(#SVGID_232_);}
	.st122{clip-path:url(#SVGID_234_);}
	.st123{clip-path:url(#SVGID_236_);}
	.st124{clip-path:url(#SVGID_238_);}
	.st125{clip-path:url(#SVGID_240_);}
	.st126{clip-path:url(#SVGID_242_);}
	.st127{clip-path:url(#SVGID_244_);}
	.st128{clip-path:url(#SVGID_246_);}
	.st129{opacity:0.2;clip-path:url(#SVGID_248_);}
	.st130{clip-path:url(#SVGID_250_);}
	.st131{opacity:0.2;clip-path:url(#SVGID_252_);}
	.st132{clip-path:url(#SVGID_254_);}
	.st133{clip-path:url(#SVGID_256_);}
	.st134{clip-path:url(#SVGID_258_);}
	.st135{clip-path:url(#SVGID_260_);}
	.st136{clip-path:url(#SVGID_262_);}
	.st137{clip-path:url(#SVGID_264_);}
	.st138{clip-path:url(#SVGID_266_);}
	.st139{clip-path:url(#SVGID_268_);}
	.st140{clip-path:url(#SVGID_270_);}
	.st141{clip-path:url(#SVGID_272_);}
	.st142{clip-path:url(#SVGID_274_);}
	.st143{clip-path:url(#SVGID_276_);}
	.st144{clip-path:url(#SVGID_278_);}
	.st145{clip-path:url(#SVGID_280_);}
	.st146{clip-path:url(#SVGID_282_);}
	.st147{clip-path:url(#SVGID_284_);}
	.st148{clip-path:url(#SVGID_286_);}
	.st149{clip-path:url(#SVGID_288_);}
	.st150{clip-path:url(#SVGID_290_);}
	.st151{clip-path:url(#SVGID_292_);}
	.st152{clip-path:url(#SVGID_294_);}
	.st153{clip-path:url(#SVGID_296_);}
	.st154{clip-path:url(#SVGID_298_);}
	.st155{clip-path:url(#SVGID_300_);}
	.st156{clip-path:url(#SVGID_302_);}
	.st157{opacity:0.2;clip-path:url(#SVGID_304_);}
	.st158{clip-path:url(#SVGID_306_);}
	.st159{opacity:0.2;clip-path:url(#SVGID_308_);}
	.st160{clip-path:url(#SVGID_310_);}
	.st161{clip-path:url(#SVGID_312_);}
	.st162{clip-path:url(#SVGID_314_);}
	.st163{clip-path:url(#SVGID_316_);}
	.st164{clip-path:url(#SVGID_318_);}
	.st165{clip-path:url(#SVGID_320_);}
	.st166{clip-path:url(#SVGID_322_);}
	.st167{clip-path:url(#SVGID_324_);}
	.st168{clip-path:url(#SVGID_326_);}
	.st169{clip-path:url(#SVGID_328_);}
	.st170{clip-path:url(#SVGID_330_);}
	.st171{clip-path:url(#SVGID_332_);}
	.st172{clip-path:url(#SVGID_334_);}
	.st173{clip-path:url(#SVGID_336_);}
	.st174{clip-path:url(#SVGID_338_);}
	.st175{clip-path:url(#SVGID_340_);}
	.st176{clip-path:url(#SVGID_342_);}
	.st177{clip-path:url(#SVGID_344_);}
	.st178{clip-path:url(#SVGID_346_);}
	.st179{clip-path:url(#SVGID_348_);}
	.st180{clip-path:url(#SVGID_350_);}
	.st181{clip-path:url(#SVGID_352_);}
	.st182{clip-path:url(#SVGID_356_);}
	.st183{clip-path:url(#SVGID_358_);}
	.st184{clip-path:url(#SVGID_360_);}
	.st185{clip-path:url(#SVGID_362_);}
	.st186{clip-path:url(#SVGID_364_);}
	.st187{clip-path:url(#SVGID_366_);}
	.st188{clip-path:url(#SVGID_368_);}
	.st189{clip-path:url(#SVGID_370_);}
	.st190{clip-path:url(#SVGID_372_);}
	.st191{clip-path:url(#SVGID_374_);}
	.st192{clip-path:url(#SVGID_376_);}
	.st193{clip-path:url(#SVGID_378_);}
	.st194{clip-path:url(#SVGID_380_);}
	.st195{clip-path:url(#SVGID_382_);}
	.st196{clip-path:url(#SVGID_384_);}
	.st197{clip-path:url(#SVGID_386_);}
	.st198{clip-path:url(#SVGID_388_);}
	.st199{clip-path:url(#SVGID_390_);}
	.st200{clip-path:url(#SVGID_392_);}
	.st201{clip-path:url(#SVGID_394_);}
	.st202{clip-path:url(#SVGID_396_);}
	.st203{clip-path:url(#SVGID_398_);}
	.st204{clip-path:url(#SVGID_400_);}
	.st205{clip-path:url(#SVGID_402_);}
	.st206{clip-path:url(#SVGID_404_);}
	.st207{clip-path:url(#SVGID_406_);}
	.st208{clip-path:url(#SVGID_408_);}
	.st209{clip-path:url(#SVGID_410_);}
	.st210{clip-path:url(#SVGID_412_);}
	.st211{clip-path:url(#SVGID_414_);}
	.st212{clip-path:url(#SVGID_416_);}
	.st213{clip-path:url(#SVGID_418_);}
	.st214{clip-path:url(#SVGID_420_);}
	.st215{clip-path:url(#SVGID_422_);}
	.st216{clip-path:url(#SVGID_424_);}
	.st217{clip-path:url(#SVGID_426_);}
	.st218{clip-path:url(#SVGID_428_);}
	.st219{clip-path:url(#SVGID_430_);}
	.st220{clip-path:url(#SVGID_432_);}
	.st221{clip-path:url(#SVGID_434_);}
	.st222{clip-path:url(#SVGID_436_);}
	.st223{clip-path:url(#SVGID_438_);}
	.st224{clip-path:url(#SVGID_440_);}
	.st225{clip-path:url(#SVGID_442_);}
	.st226{clip-path:url(#SVGID_444_);}
	.st227{clip-path:url(#SVGID_446_);}
	.st228{clip-path:url(#SVGID_448_);}
	.st229{clip-path:url(#SVGID_450_);}
	.st230{clip-path:url(#SVGID_452_);}
	.st231{clip-path:url(#SVGID_454_);}
	.st232{clip-path:url(#SVGID_456_);}
	.st233{clip-path:url(#SVGID_458_);}
	.st234{clip-path:url(#SVGID_460_);}
	.st235{clip-path:url(#SVGID_462_);}
	.st236{clip-path:url(#SVGID_464_);}
	.st237{clip-path:url(#SVGID_466_);}
	.st238{clip-path:url(#SVGID_468_);}
	.st239{clip-path:url(#SVGID_470_);}
	.st240{clip-path:url(#SVGID_472_);}
	.st241{clip-path:url(#SVGID_474_);}
	.st242{clip-path:url(#SVGID_476_);}
	.st243{clip-path:url(#SVGID_478_);}
	.st244{clip-path:url(#SVGID_480_);}
	.st245{clip-path:url(#SVGID_482_);}
	.st246{clip-path:url(#SVGID_484_);}
	.st247{clip-path:url(#SVGID_486_);}
	.st248{clip-path:url(#SVGID_488_);}
	.st249{clip-path:url(#SVGID_490_);}
	.st250{clip-path:url(#SVGID_492_);}
	.st251{clip-path:url(#SVGID_494_);}
	.st252{fill-rule:evenodd;clip-rule:evenodd;}
	.st253{clip-path:url(#SVGID_496_);}
	.st254{clip-path:url(#SVGID_498_);}
	.st255{clip-path:url(#SVGID_500_);}
	.st256{clip-path:url(#SVGID_502_);}
	.st257{clip-path:url(#SVGID_504_);}
	.st258{clip-path:url(#SVGID_506_);}
	.st259{clip-path:url(#SVGID_508_);}
	.st260{clip-path:url(#SVGID_510_);}
	.st261{clip-path:url(#SVGID_512_);}
	.st262{clip-path:url(#SVGID_514_);}
	.st263{clip-path:url(#SVGID_517_);}
	.st264{clip-path:url(#SVGID_520_);}
	.st265{fill:url(#SVGID_521_);}
	.st266{clip-path:url(#SVGID_524_);}
	.st267{clip-path:url(#SVGID_527_);}
	.st268{fill:url(#SVGID_528_);}
	.st269{clip-path:url(#SVGID_531_);}
	.st270{clip-path:url(#SVGID_534_);}
	.st271{fill:url(#SVGID_535_);}
	.st272{clip-path:url(#SVGID_538_);}
	.st273{clip-path:url(#SVGID_541_);}
	.st274{fill:url(#SVGID_542_);}
	.st275{clip-path:url(#SVGID_545_);}
	.st276{clip-path:url(#SVGID_548_);}
	.st277{fill:url(#SVGID_549_);}
	.st278{fill:none;}
	.st279{fill-rule:evenodd;clip-rule:evenodd;fill:#231F20;}
	.st280{fill:#E6EBED;}
</style>
<g>
	<rect class="st2" width="1000" height="1000"/>
	<g id="Page-1_2_">
		<g id="_x32_.1_1_">
			<g id="Group_1_" transform="translate(0.000000, 3.000000)">
				<g id="Combined-Shape_1_">
					<path class="st1" d="M891.8,198.2v-17.1c0-9.5-7.7-17.1-17.1-17.1l0,0h-5.7l0,0c-9.5,0-17.1,7.7-17.1,17.1l0,0v17.1h-17.1
						c-9.5,0-17.1,7.7-17.1,17.1l0,0v5.7l0,0c0,9.5,7.7,17.1,17.1,17.1l0,0h17.1v17.1c0,9.5,7.7,17.1,17.1,17.1l0,0h5.7
						c9.5,0,17.1-7.7,17.1-17.1l0,0v-17.1h17.1c9.5,0,17.1-7.7,17.1-17.1l0,0v-5.7c0-9.5-7.7-17.1-17.1-17.1l0,0H891.8z"/>
				</g>
				<g id="Logo_1_" transform="translate(38.966203, 0.000000)">
					<g id="Fill-1_3_">
						<polygon class="st3" points="483.5,285.9 304,284.8 392.1,844.7 411.4,844.7 587.6,844.7 606.9,844.7 695,284.8 						"/>
					</g>
					<g id="Fill-2_1_">
						<polygon class="st1" points="483.5,285.9 304,284.8 392.1,844.7 411.4,844.7 542.8,844.7 562,844.7 650.1,284.8 						"/>
					</g>
					<g id="Fill-3_1_">
						<polygon class="st2" points="252.7,284.8 715.8,284.8 715.8,233.2 252.7,233.2 						"/>
					</g>
					<g id="Stroke-4_1_">
						<path d="M727.9,296.8H240.7v-75.7h487.2V296.8z M264.7,272.8h439.1v-27.6H264.7V272.8z"/>
					</g>
					<g id="Fill-6_1_">
						<polygon class="st2" points="626.1,149.3 515.5,149.3 449.8,149.3 339.2,149.3 305.6,226.7 449.8,226.7 515.5,226.7 
							659.7,226.7 						"/>
					</g>
					<g id="Group-11_1_" transform="translate(3.455131, 0.000000)">
						<g id="Stroke-7_1_">
							<path class="st4" d="M674.6,238.7H283.8l44.1-101.5h302.6L674.6,238.7z M320.5,214.7H638l-23.2-53.4H343.7L320.5,214.7z"/>
						</g>
						<g id="Stroke-9_1_">
							<path d="M613.7,856.8H346.3l-91.9-584l225.6,1.2l225.6-1.2L613.7,856.8z M366.9,832.7h226.2l84.3-535.8l-197.5,1l-197.4-1
								L366.9,832.7z"/>
						</g>
					</g>
					<g id="Fill-12_1_">
						<polygon class="st2" points="701.4,442.9 490.3,442.9 475.1,442.9 263.9,442.9 303.4,665.6 482.7,663.7 661.9,665.6 						"/>
					</g>
					<g id="Stroke-13_1_">
						<path d="M672,677.8l-189.4-2.1l-189.2,2.1l-43.8-246.8h466.2L672,677.8z M482.5,651.7l169.3,1.8L687.1,455H278.3l35.2,198.5
							L482.5,651.7z"/>
					</g>
				</g>
				<g id="Oval_5_">
					<path class="st5" d="M139.8,427.3c-36.3,0-65.8-29.5-65.8-65.8s29.5-65.8,65.8-65.8s65.8,29.5,65.8,65.8
						S176.1,427.3,139.8,427.3z M139.8,334.3c-14.9,0-27.1,12.2-27.1,27.1c0,14.9,12.2,27.1,27.1,27.1c14.9,0,27.1-12.2,27.1-27.1
						C166.9,346.5,154.8,334.3,139.8,334.3z"/>
				</g>
				<g id="Oval_4_">
					<circle class="st5" cx="825.3" cy="559" r="31"/>
				</g>
				<g id="Oval_3_">
					<circle class="st0" cx="244.4" cy="737.1" r="31"/>
				</g>
			</g>
		</g>
	</g>
</g>
<g>
	<g>
		<g>
			<defs>
				<path id="SVGID_1_" d="M1907.7,204.3v-16.9c0-9.4-7.6-16.9-16.9-16.9h-5.6c-9.4,0-16.9,7.6-16.9,16.9v16.9h-16.9
					c-9.4,0-16.9,7.6-16.9,16.9v5.6c0,9.4,7.6,16.9,16.9,16.9h16.9v16.9c0,9.4,7.6,16.9,16.9,16.9h5.6c9.4,0,16.9-7.6,16.9-16.9
					v-16.9h16.9c9.4,0,16.9-7.6,16.9-16.9v-5.6c0-9.4-7.6-16.9-16.9-16.9H1907.7z"/>
			</defs>
			<clipPath id="SVGID_2_">
				<use xlink:href="#SVGID_1_"  style="overflow:visible;"/>
			</clipPath>
			<g class="st6">
				<defs>
					<rect id="SVGID_3_" x="-212.3" y="-1700.9" width="6609" height="4406"/>
				</defs>
				<clipPath id="SVGID_4_">
					<use xlink:href="#SVGID_3_"  style="overflow:visible;"/>
				</clipPath>
			</g>
		</g>
		<g>
			<defs>
				<polygon id="SVGID_5_" points="1542.2,291.1 1364.6,290 1451.8,844.1 1470.8,844.1 1645.3,844.1 1664.3,844.1 1751.5,290 				
					"/>
			</defs>
			<clipPath id="SVGID_6_">
				<use xlink:href="#SVGID_5_"  style="overflow:visible;"/>
			</clipPath>
			<g class="st8">
				<defs>
					<rect id="SVGID_7_" x="-212.3" y="-1700.9" width="6609" height="4406"/>
				</defs>
				<clipPath id="SVGID_8_">
					<use xlink:href="#SVGID_7_"  style="overflow:visible;"/>
				</clipPath>
			</g>
		</g>
		<g>
			<defs>
				<polygon id="SVGID_9_" points="1542.2,291.1 1364.6,290 1451.8,844.1 1470.8,844.1 1600.9,844.1 1619.9,844.1 1707.1,290 				
					"/>
			</defs>
			<clipPath id="SVGID_10_">
				<use xlink:href="#SVGID_9_"  style="overflow:visible;"/>
			</clipPath>
			<g class="st10">
				<defs>
					<rect id="SVGID_11_" x="-212.3" y="-1700.9" width="6609" height="4406"/>
				</defs>
				<clipPath id="SVGID_12_">
					<use xlink:href="#SVGID_11_"  style="overflow:visible;"/>
				</clipPath>
			</g>
		</g>
		<g>
			<defs>
				<rect id="SVGID_13_" x="1313.8" y="238.9" width="458.3" height="51.1"/>
			</defs>
			<clipPath id="SVGID_14_">
				<use xlink:href="#SVGID_13_"  style="overflow:visible;"/>
			</clipPath>
			<g class="st12">
				<defs>
					<rect id="SVGID_15_" x="-212.3" y="-1700.9" width="6609" height="4406"/>
				</defs>
				<clipPath id="SVGID_16_">
					<use xlink:href="#SVGID_15_"  style="overflow:visible;"/>
				</clipPath>
			</g>
		</g>
		<g>
			<defs>
				<polygon id="SVGID_17_" points="1683.3,155.9 1573.9,155.9 1508.9,155.9 1399.5,155.9 1366.2,232.5 1508.9,232.5 1573.9,232.5 
					1716.6,232.5 				"/>
			</defs>
			<clipPath id="SVGID_18_">
				<use xlink:href="#SVGID_17_"  style="overflow:visible;"/>
			</clipPath>
			<g class="st14">
				<defs>
					<rect id="SVGID_19_" x="-212.3" y="-1700.9" width="6609" height="4406"/>
				</defs>
				<clipPath id="SVGID_20_">
					<use xlink:href="#SVGID_19_"  style="overflow:visible;"/>
				</clipPath>
			</g>
		</g>
		<g>
			<defs>
				<polygon id="SVGID_21_" points="1757.9,446.5 1548.9,446.5 1533.9,446.5 1325,446.5 1364,666.9 1541.4,664.9 1718.8,666.9 				
					"/>
			</defs>
			<clipPath id="SVGID_22_">
				<use xlink:href="#SVGID_21_"  style="overflow:visible;"/>
			</clipPath>
			<g class="st16">
				<defs>
					<rect id="SVGID_23_" x="-212.3" y="-1700.9" width="6609" height="4406"/>
				</defs>
				<clipPath id="SVGID_24_">
					<use xlink:href="#SVGID_23_"  style="overflow:visible;"/>
				</clipPath>
			</g>
		</g>
		<g>
			<defs>
				
					<ellipse id="SVGID_25_" transform="matrix(3.723565e-02 -0.9993 0.9993 3.723565e-02 754.6526 1515.0387)" cx="1163.6" cy="365.9" rx="65.1" ry="65.1"/>
			</defs>
			<clipPath id="SVGID_26_">
				<use xlink:href="#SVGID_25_"  style="overflow:visible;"/>
			</clipPath>
			<g class="st18">
				<defs>
					<rect id="SVGID_27_" x="-212.3" y="-1700.9" width="6609" height="4406"/>
				</defs>
				<clipPath id="SVGID_28_">
					<use xlink:href="#SVGID_27_"  style="overflow:visible;"/>
				</clipPath>
			</g>
		</g>
		<g>
			<defs>
				<circle id="SVGID_29_" cx="1841.9" cy="561.3" r="30.7"/>
			</defs>
			<clipPath id="SVGID_30_">
				<use xlink:href="#SVGID_29_"  style="overflow:visible;"/>
			</clipPath>
			<g class="st20">
				<defs>
					<rect id="SVGID_31_" x="-212.3" y="-1700.9" width="6609" height="4406"/>
				</defs>
				<clipPath id="SVGID_32_">
					<use xlink:href="#SVGID_31_"  style="overflow:visible;"/>
				</clipPath>
			</g>
		</g>
		<g>
			<defs>
				<circle id="SVGID_33_" cx="1267.1" cy="737.6" r="30.7"/>
			</defs>
			<clipPath id="SVGID_34_">
				<use xlink:href="#SVGID_33_"  style="overflow:visible;"/>
			</clipPath>
			<g class="st22">
				<defs>
					<rect id="SVGID_35_" x="-212.3" y="-1700.9" width="6609" height="4406"/>
				</defs>
				<clipPath id="SVGID_36_">
					<use xlink:href="#SVGID_35_"  style="overflow:visible;"/>
				</clipPath>
			</g>
		</g>
	</g>
</g>
<g>
	<g>
		<g>
			<defs>
				<path id="SVGID_37_" d="M2927.7,204.3v-16.9c0-9.4-7.6-16.9-16.9-16.9h-5.6c-9.4,0-16.9,7.6-16.9,16.9v16.9h-16.9
					c-9.4,0-16.9,7.6-16.9,16.9v5.6c0,9.4,7.6,16.9,16.9,16.9h16.9v16.9c0,9.4,7.6,16.9,16.9,16.9h5.6c9.4,0,16.9-7.6,16.9-16.9
					v-16.9h16.9c9.4,0,16.9-7.6,16.9-16.9v-5.6c0-9.4-7.6-16.9-16.9-16.9H2927.7z"/>
			</defs>
			<clipPath id="SVGID_38_">
				<use xlink:href="#SVGID_37_"  style="overflow:visible;"/>
			</clipPath>
			<g class="st24">
				<defs>
					<rect id="SVGID_39_" x="807.6" y="-1701" width="6609.3" height="4406.2"/>
				</defs>
				<clipPath id="SVGID_40_">
					<use xlink:href="#SVGID_39_"  style="overflow:visible;"/>
				</clipPath>
			</g>
		</g>
		<g>
			<defs>
				<polygon id="SVGID_41_" points="2562.2,291.1 2384.6,290 2471.8,844.1 2490.8,844.1 2665.3,844.1 2684.3,844.1 2771.5,290 				
					"/>
			</defs>
			<clipPath id="SVGID_42_">
				<use xlink:href="#SVGID_41_"  style="overflow:visible;"/>
			</clipPath>
			<g class="st26">
				<defs>
					<rect id="SVGID_43_" x="807.6" y="-1701" width="6609.3" height="4406.2"/>
				</defs>
				<clipPath id="SVGID_44_">
					<use xlink:href="#SVGID_43_"  style="overflow:visible;"/>
				</clipPath>
			</g>
		</g>
		<g>
			<defs>
				<polygon id="SVGID_45_" points="2562.2,291.1 2384.6,290 2471.8,844.1 2490.8,844.1 2620.9,844.1 2639.9,844.1 2727.1,290 				
					"/>
			</defs>
			<clipPath id="SVGID_46_">
				<use xlink:href="#SVGID_45_"  style="overflow:visible;"/>
			</clipPath>
			<g class="st28">
				<defs>
					<rect id="SVGID_47_" x="807.6" y="-1701" width="6609.3" height="4406.2"/>
				</defs>
				<clipPath id="SVGID_48_">
					<use xlink:href="#SVGID_47_"  style="overflow:visible;"/>
				</clipPath>
			</g>
		</g>
		<g>
			<defs>
				<rect id="SVGID_49_" x="2333.8" y="238.9" width="458.3" height="51.1"/>
			</defs>
			<clipPath id="SVGID_50_">
				<use xlink:href="#SVGID_49_"  style="overflow:visible;"/>
			</clipPath>
			<g class="st30">
				<defs>
					<rect id="SVGID_51_" x="807.6" y="-1701" width="6609.3" height="4406.2"/>
				</defs>
				<clipPath id="SVGID_52_">
					<use xlink:href="#SVGID_51_"  style="overflow:visible;"/>
				</clipPath>
			</g>
		</g>
		<g>
			<defs>
				<polygon id="SVGID_53_" points="2703.3,155.9 2593.9,155.9 2528.9,155.9 2419.5,155.9 2386.2,232.5 2528.9,232.5 2593.9,232.5 
					2736.6,232.5 				"/>
			</defs>
			<clipPath id="SVGID_54_">
				<use xlink:href="#SVGID_53_"  style="overflow:visible;"/>
			</clipPath>
			<g class="st32">
				<defs>
					<rect id="SVGID_55_" x="807.6" y="-1701" width="6609.3" height="4406.2"/>
				</defs>
				<clipPath id="SVGID_56_">
					<use xlink:href="#SVGID_55_"  style="overflow:visible;"/>
				</clipPath>
			</g>
		</g>
		<g>
			<defs>
				<polygon id="SVGID_57_" points="2777.9,446.5 2568.9,446.5 2553.9,446.5 2344.9,446.5 2384,666.9 2561.4,665 2738.8,666.9 				
					"/>
			</defs>
			<clipPath id="SVGID_58_">
				<use xlink:href="#SVGID_57_"  style="overflow:visible;"/>
			</clipPath>
			<g class="st34">
				<defs>
					<rect id="SVGID_59_" x="807.6" y="-1701" width="6609.3" height="4406.2"/>
				</defs>
				<clipPath id="SVGID_60_">
					<use xlink:href="#SVGID_59_"  style="overflow:visible;"/>
				</clipPath>
			</g>
		</g>
		<g>
			<defs>
				
					<ellipse id="SVGID_61_" transform="matrix(3.723566e-02 -0.9993 0.9993 3.723566e-02 1736.6631 2534.3098)" cx="2183.6" cy="365.9" rx="65.2" ry="65.2"/>
			</defs>
			<clipPath id="SVGID_62_">
				<use xlink:href="#SVGID_61_"  style="overflow:visible;"/>
			</clipPath>
			<g class="st36">
				<defs>
					<rect id="SVGID_63_" x="807.6" y="-1701" width="6609.3" height="4406.2"/>
				</defs>
				<clipPath id="SVGID_64_">
					<use xlink:href="#SVGID_63_"  style="overflow:visible;"/>
				</clipPath>
			</g>
		</g>
		<g>
			<defs>
				<circle id="SVGID_65_" cx="2861.9" cy="561.3" r="30.7"/>
			</defs>
			<clipPath id="SVGID_66_">
				<use xlink:href="#SVGID_65_"  style="overflow:visible;"/>
			</clipPath>
			<g class="st38">
				<defs>
					<rect id="SVGID_67_" x="807.6" y="-1701" width="6609.3" height="4406.2"/>
				</defs>
				<clipPath id="SVGID_68_">
					<use xlink:href="#SVGID_67_"  style="overflow:visible;"/>
				</clipPath>
			</g>
		</g>
		<g>
			<defs>
				<circle id="SVGID_69_" cx="2287.1" cy="737.6" r="30.7"/>
			</defs>
			<clipPath id="SVGID_70_">
				<use xlink:href="#SVGID_69_"  style="overflow:visible;"/>
			</clipPath>
			<g class="st40">
				<defs>
					<rect id="SVGID_71_" x="807.6" y="-1701" width="6609.3" height="4406.2"/>
				</defs>
				<clipPath id="SVGID_72_">
					<use xlink:href="#SVGID_71_"  style="overflow:visible;"/>
				</clipPath>
			</g>
		</g>
	</g>
</g>
<g>
	<defs>
		<path id="SVGID_495_" d="M1210.6,1292.7c-1-1.6-2.4-3.1-4.1-4.3c-1.7-1.2-3.8-2.1-6.1-2.7c1-0.6,2-1.6,3-2.9
			c1-1.3,1.8-2.7,2.5-4.3c0.7-1.5,1.2-3.1,1.4-4.7c0.3-1.6,0.2-2.9-0.3-4c-1.1-2.8-2.8-5-5.1-6.6c-2.3-1.6-5.1-2.7-8.2-3.3
			c-3.1-0.6-6.5-0.7-10.3-0.4c-3.7,0.4-7.6,1-11.5,2.1c0-0.2,0-0.5,0.1-0.7c0.1-0.3,0.1-0.5,0.1-0.8c0-0.7-0.5-1.3-1.4-1.8
			c-1-0.5-2.1-0.8-3.3-0.9c-1.2-0.1-2.5,0.1-3.6,0.6c-1.2,0.5-2,1.4-2.4,2.7c-0.5,4.2-1,8.6-1.5,13.2c-0.5,4.5-1.1,9.1-1.6,13.8
			c-0.6,4.6-1.2,9.2-1.7,13.8c-0.6,4.6-1.2,9-1.7,13.2c0.2,1.3,0.7,2.3,1.4,3c0.8,0.7,1.7,1.1,2.7,1.3c1,0.1,2.1,0,3.2-0.4
			c1.1-0.4,2.1-1.1,2.9-2.1c2.6,1,5.4,1.7,8.6,2c3.2,0.3,6.4,0.3,9.7,0c3.3-0.3,6.5-0.9,9.7-1.7c3.2-0.8,6.1-1.9,8.7-3.2
			c2.6-1.3,4.8-2.7,6.6-4.3c1.8-1.6,3-3.4,3.6-5.2c0.6-1.9,0.7-3.8,0.5-5.8C1212.3,1296.2,1211.6,1294.4,1210.6,1292.7z
			 M1170.9,1269.9c1.3-0.6,3-1.1,4.8-1.6c1.9-0.5,3.8-0.8,5.8-1c2-0.2,3.9-0.2,5.8-0.1c1.9,0.1,3.6,0.5,5,1.2
			c1.4,0.6,2.5,1.5,3.2,2.7c0.7,1.2,0.9,2.7,0.6,4.5c-0.3,1.5-1,2.7-2.4,3.7c-1.3,1-2.9,1.9-4.8,2.5c-1.9,0.7-3.9,1.2-6,1.6
			c-2.1,0.4-4.1,0.7-6.1,0.9c-2,0.2-3.6,0.3-5.1,0.4c-1.4,0-2.4,0.1-2.8,0.1L1170.9,1269.9z M1200.2,1302.7c-1.2,1.6-2.7,3-4.8,4.2
			c-2,1.2-4.4,2.2-7.1,2.9c-2.7,0.8-5.4,1.3-8.1,1.5c-2.7,0.3-5.4,0.2-7.9-0.1c-2.6-0.3-4.7-0.9-6.5-1.9l2-15.4
			c1.9-0.5,4.2-0.9,7-1.4c2.8-0.5,5.7-0.8,8.7-1.1c3-0.2,5.8-0.2,8.4,0.1c2.7,0.3,4.8,0.9,6.3,1.9c0.8,0.6,1.5,1.2,2.1,1.8
			c0.6,0.7,0.9,1.3,1.1,2C1201.8,1299.3,1201.4,1301.1,1200.2,1302.7z"/>
	</defs>
	<use xlink:href="#SVGID_495_"  style="overflow:visible;fill-rule:evenodd;clip-rule:evenodd;"/>
	<clipPath id="SVGID_74_">
		<use xlink:href="#SVGID_495_"  style="overflow:visible;"/>
	</clipPath>
	<g class="st42">
		<defs>
			<rect id="SVGID_497_" x="665.1" y="926.3" width="1461.5" height="713.7"/>
		</defs>
		<use xlink:href="#SVGID_497_"  style="overflow:visible;"/>
		<clipPath id="SVGID_76_">
			<use xlink:href="#SVGID_497_"  style="overflow:visible;"/>
		</clipPath>
	</g>
</g>
<g>
	<defs>
		<path id="SVGID_499_" d="M1336.8,1299.3c-0.9-0.7-1.9-1.1-3.2-1.2c-1.2-0.1-2.5,0.4-3.8,1.5c-0.8,1.1-1.9,2.2-3.2,3.2
			c-1.3,1-2.6,2-4,2.8c-1.4,0.8-2.7,1.6-3.9,2.2c-1.2,0.6-2.2,1.1-2.9,1.3c-0.3-1.5-0.4-3.1-0.4-4.9c0-1.7,0-3.5,0.1-5.3
			c0.2-2.5,0.6-5.1,1.2-7.7c0.6-2.6,1.5-5.1,2.6-7.6c0-1.3-0.4-2.4-1.2-3.2c-0.8-0.8-1.8-1.3-3-1.5c-1.2-0.2-2.4-0.1-3.6,0.4
			c-1.2,0.4-2.3,1.3-3.2,2.4c-0.8,1.5-1.6,3.3-2.6,5.2c-1,1.9-2.1,3.9-3.4,5.9c-1.2,2-2.6,3.9-4.2,5.8c-1.5,1.9-3.2,3.5-5,5
			c-1.8,1.5-3.8,2.6-6,3.4c-2.1,0.8-4.5,1.2-7,1.1c-1.2-0.2-2-0.9-2.5-1.9c-0.5-1-0.8-2.3-0.9-3.9c-0.1-1.5,0-3.2,0.3-5.1
			c0.3-1.9,0.7-3.7,1.2-5.5c0.5-1.8,1-3.6,1.6-5.2c0.6-1.6,1.1-3,1.6-4.1c0.8-1.4,0.8-2.5,0-3.4c-0.8-0.9-1.8-1.5-3.2-1.8
			c-1.3-0.3-2.8-0.3-4.2,0c-1.5,0.3-2.5,1.1-3.2,2.2c-1.1,1.9-2.1,4.1-3,6.5c-0.9,2.4-1.6,4.9-2.2,7.4c-0.5,2.6-0.9,5.1-0.9,7.6
			c0,0.2,0,0.3,0,0.5c-1.4,2.7-2.7,4.8-4,6.2c-1.6,1.8-3.5,2.6-5.5,2.3c-0.9-0.3-1.5-0.9-1.8-2c-0.3-1-0.4-2.3-0.3-3.8
			c0.1-1.5,0.3-3.2,0.7-5.1c0.4-1.9,0.9-3.9,1.4-5.9c0.6-2,1.2-4.1,1.8-6.2c0.6-2.1,1.2-4,1.7-5.8c-0.1-1.6-0.7-2.9-2-3.8
			c-1.2-0.9-3-1.2-5.2-1c-1.5,0.5-2.7,1.1-3.4,1.8c-0.7,0.7-1.3,1.7-1.8,2.9c-0.3,0.6-0.6,1.8-1.2,3.7c-0.5,1.8-1.2,3.9-2,6.3
			c-0.8,2.4-1.7,4.8-2.8,7.4c-1.1,2.6-2.3,4.9-3.6,7c-1.3,2.1-2.8,3.8-4.4,5c-1.6,1.3-3.3,1.8-5.2,1.5c-1-0.1-1.7-0.9-2-2.3
			c-0.3-1.4-0.3-3.1-0.1-5.2c0.2-2.1,0.6-4.3,1.2-6.8c0.6-2.5,1.2-4.8,1.8-7c0.6-2.2,1.2-4.1,1.7-5.8c0.5-1.7,0.9-2.8,1.1-3.4
			c0-1.4-0.4-2.4-1.2-3.3c-0.8-0.8-1.8-1.3-3-1.5c-1.2-0.2-2.4-0.1-3.6,0.4c-1.2,0.4-2.3,1.3-3.2,2.4c-0.3,1.3-0.7,2.7-1.2,4.4
			c-0.5,1.7-1,3.4-1.5,5.1c-0.5,1.8-0.9,3.5-1.3,5.2c-0.4,1.7-0.7,3.2-0.9,4.4c-0.1,1-0.3,2.2-0.4,3.6c-0.2,1.4-0.2,2.9-0.2,4.5
			c0,1.6,0.2,3.2,0.5,4.7c0.3,1.6,0.9,3,1.7,4.3c0.8,1.3,2,2.4,3.5,3.2c1.5,0.8,3.4,1.3,5.7,1.4c2.4,0.1,4.4,0,6.2-0.4
			c1.8-0.4,3.4-0.9,4.8-1.7c1.4-0.7,2.8-1.6,3.9-2.7c1.2-1,2.4-2.2,3.5-3.4c1.1,1.8,2.5,3.2,4.2,4.1c1.7,1,3.6,1.6,5.5,1.8
			s3.9,0,5.9-0.6c2-0.6,3.8-1.6,5.4-3c1.1-0.9,2-1.8,3-2.9c0.4,0.5,0.8,1,1.3,1.4c1.6,1.5,3.7,2.5,6.4,3.1c2.9,0.6,5.7,0.7,8.4,0.3
			c2.8-0.4,5.4-1.1,7.9-2c2.5-1,4.8-2.2,7-3.6c2.1-1.4,4-2.8,5.6-4.3c-0.1,1.1-0.1,2.1-0.1,3.1c0,1,0,2-0.1,3.1
			c-3.2,1.6-6.2,3.6-9.1,5.9c-2.8,2.3-5.3,4.7-7.5,7.3c-2.1,2.6-3.8,5.2-5,7.9c-1.2,2.7-1.8,5.2-1.8,7.5c0,2.3,0.8,4.3,2.3,6.1
			c1.5,1.7,3.9,3,7.2,3.7c3.5,0.8,6.5,0.8,9.1,0.1c2.6-0.8,4.9-2,6.9-3.7c2-1.7,3.6-3.8,4.8-6.3c1.2-2.5,2.2-5,3-7.7
			c0.7-2.7,1.2-5.3,1.4-7.9c0.2-2.6,0.2-4.9,0-6.9c5.5-1.7,10-3.8,13.5-6.4c3.5-2.6,6.4-5.3,8.7-8.2c0.7-0.7,0.9-1.5,0.7-2.5
			C1338.2,1300.9,1337.6,1300,1336.8,1299.3 M1304.2,1329.9c-0.4,1.5-0.8,3.2-1.5,4.9c-0.6,1.7-1.4,3.3-2.3,4.7
			c-0.9,1.4-1.8,2.5-2.9,3.4c-1.1,0.9-2.2,1.2-3.4,1.1c-1-0.1-1.6-0.5-1.8-1.3c-0.3-0.8-0.3-1.8,0-3c0.3-1.2,0.8-2.5,1.5-4
			c0.7-1.5,1.6-2.9,2.7-4.4c1.1-1.5,2.3-2.8,3.6-4.2c1.3-1.3,2.8-2.4,4.2-3.3c0.3,0.3,0.5,1,0.4,2.1
			C1304.8,1327,1304.6,1328.3,1304.2,1329.9"/>
	</defs>
	<use xlink:href="#SVGID_499_"  style="overflow:visible;fill-rule:evenodd;clip-rule:evenodd;"/>
	<clipPath id="SVGID_78_">
		<use xlink:href="#SVGID_499_"  style="overflow:visible;"/>
	</clipPath>
	<g class="st44">
		<defs>
			<rect id="SVGID_501_" x="665.1" y="926.3" width="1461.5" height="713.7"/>
		</defs>
		<use xlink:href="#SVGID_501_"  style="overflow:visible;"/>
		<clipPath id="SVGID_80_">
			<use xlink:href="#SVGID_501_"  style="overflow:visible;"/>
		</clipPath>
	</g>
</g>
<g>
	<defs>
		<path id="SVGID_503_" d="M1491.1,1297.7c-1.1-0.2-2.1-0.3-3-0.1c-1,0.2-1.6,0.7-1.8,1.5c-0.5,1.5-1.3,3-2.4,4.6
			c-1.1,1.6-2.5,3.1-4.1,4.5c-1.6,1.4-3.5,2.6-5.5,3.7c-2,1.1-4.2,1.9-6.4,2.3c-2.2,0.5-4.1,0.6-5.6,0.2c-1.5-0.4-2.6-1.1-3.5-2
			s-1.5-2.1-1.9-3.5c-0.4-1.4-0.6-2.8-0.7-4.2c3.6,0.2,6.9-0.3,9.7-1.4c2.8-1.1,5.3-2.7,7.2-4.6c2-1.9,3.5-4,4.5-6.4
			c1-2.4,1.6-4.7,1.7-7.1c0.1-2.2-0.4-4.1-1.3-5.6c-1-1.5-2.3-2.7-3.9-3.6c-1.6-0.8-3.5-1.3-5.6-1.5c-2.1-0.1-4.3,0.1-6.4,0.6
			c-2.6,0.7-4.8,1.7-6.7,3.2c-1.8,1.5-3.3,3.2-4.6,5.1c-1.2,1.9-2.2,4-2.9,6.3c-0.7,2.3-1.2,4.5-1.5,6.6c-0.3,2-0.4,3.8-0.5,5.6
			c-0.1,0.2-0.3,0.4-0.4,0.7c-1,1.7-2.1,3.3-3.5,4.9c-1.3,1.6-2.8,2.9-4.4,4c-1.6,1.1-3.3,1.5-5,1.1c-1-0.2-1.6-1.1-1.7-2.6
			c-0.1-1.5,0-3.5,0.3-5.8c0.3-2.3,0.7-4.8,1.1-7.5c0.4-2.7,0.6-5.2,0.6-7.7c0-2.1-0.5-4.1-1.6-6.1c-1.1-1.9-2.6-3.6-4.5-4.9
			c-1.9-1.3-4.1-2.1-6.6-2.6c-2.5-0.4-5.2-0.1-8.1,0.8c-2.9,1-5.2,2.4-6.9,4.1c-1.7,1.8-3.2,3.7-4.7,5.6c-0.5-1.5-1.3-2.9-2.3-4.2
			c-1-1.3-2.2-2.4-3.6-3.4c-1.4-1-3.1-1.7-4.8-2.2c-1.8-0.5-3.7-0.8-5.7-0.8c-1.9,0-3.7,0.3-5.3,0.8c-1.6,0.5-3.1,1.2-4.5,2.1
			c-1.3,0.8-2.6,1.8-3.6,2.8c-1.1,1.1-2,2.1-2.9,3.1c-0.1-1.2-0.3-2.3-0.4-3.2c-0.2-0.9-0.4-1.7-0.9-2.3c-0.4-0.6-1-1.1-1.8-1.4
			c-0.8-0.3-1.9-0.5-3.3-0.5c-0.7,0-1.4,0.1-2.1,0.3c-0.7,0.2-1.3,0.5-1.9,0.9c-0.5,0.4-1,0.8-1.2,1.4c-0.3,0.5-0.4,1.2-0.2,1.9
			c0.1,0.5,0.2,1.1,0.5,1.9c0.3,0.7,0.6,1.7,0.8,2.8c0.3,1.2,0.5,2.6,0.6,4.3c0.2,1.7,0.2,3.7,0.1,6.1c-0.1,2.4-0.3,5.2-0.7,8.5
			c-0.4,3.2-1.1,7-2,11.3c-0.1,1,0.4,1.8,1.5,2.4c1.2,0.6,2.5,1,3.9,1.1c1.5,0.1,2.9-0.1,4.2-0.6c1.3-0.5,2.1-1.3,2.3-2.5
			c0.2-2.2,0.6-4.5,1.1-7c0.5-2.5,1.2-4.9,2-7.4c0.8-2.4,1.7-4.8,2.7-7c1-2.2,2.2-4.1,3.4-5.8c1.2-1.7,2.5-3,3.9-4
			c1.3-1,2.8-1.5,4.2-1.5c1.8,0,3.2,0.6,4.2,1.8c1,1.2,1.7,2.7,2.1,4.6c0.4,1.9,0.6,3.9,0.6,6.2c0,2.2-0.2,4.4-0.4,6.4
			c-0.2,2.1-0.5,3.9-0.8,5.5c-0.3,1.6-0.5,2.7-0.6,3.3c0,1.1,0.6,1.9,1.7,2.6c1.1,0.6,2.4,1,3.7,1.1c1.4,0.1,2.7-0.1,3.9-0.6
			c1.2-0.5,1.9-1.3,2.1-2.5c0.6-3.4,1.5-6.8,2.6-10.2s2.4-6.4,3.8-9.1c1.4-2.7,3-4.9,4.8-6.6c1.8-1.7,3.6-2.6,5.6-2.6
			c1,0,1.8,0.5,2.4,1.5c0.5,1,0.8,2.4,0.8,4.2c0,1.3-0.1,2.7-0.4,4c-0.3,1.4-0.6,2.8-1,4.3c-0.4,1.5-0.7,3-1,4.5
			c-0.3,1.5-0.4,3.2-0.4,4.9c0,1.2,0.2,2.5,0.5,4.1c0.3,1.5,0.9,3,1.8,4.4c0.9,1.4,2.1,2.6,3.7,3.5c1.6,1,3.6,1.4,6,1.4
			c3.6,0,6.9-0.6,9.7-1.7c2.8-1.1,5.2-2.6,7.2-4.5c0.1-0.1,0.2-0.2,0.3-0.3c0.2,0.3,0.3,0.6,0.5,0.8c1.4,2.1,3.2,3.7,5.6,4.8
			c2.4,1.1,5.2,1.7,8.4,1.9c3.2,0.1,6.7-0.3,10.5-1.3c2.8-0.8,5.3-1.7,7.3-2.8c2.1-1.1,4-2.5,5.6-4.1c1.7-1.6,3.2-3.5,4.6-5.6
			c1.4-2.1,2.8-4.5,4.2-7.2c0.3-0.7,0-1.4-0.7-2C1493.1,1298.4,1492.2,1298,1491.1,1297.7 M1457.9,1294.8c0.2-1.1,0.5-2.2,0.9-3.4
			s0.9-2.4,1.4-3.5c0.6-1.1,1.2-2.1,2-2.9c0.8-0.8,1.6-1.4,2.4-1.8c0.9-0.4,1.7-0.3,2.6,0.1c1,0.4,1.6,1.3,1.8,2.7
			c0.2,1.4,0,2.8-0.7,4.4c-0.7,1.5-1.9,3-3.6,4.4c-1.7,1.4-4.1,2.2-7,2.7C1457.7,1296.8,1457.7,1295.9,1457.9,1294.8"/>
	</defs>
	<use xlink:href="#SVGID_503_"  style="overflow:visible;fill-rule:evenodd;clip-rule:evenodd;"/>
	<clipPath id="SVGID_82_">
		<use xlink:href="#SVGID_503_"  style="overflow:visible;"/>
	</clipPath>
	<g class="st46">
		<defs>
			<rect id="SVGID_505_" x="665.1" y="926.3" width="1461.5" height="713.7"/>
		</defs>
		<use xlink:href="#SVGID_505_"  style="overflow:visible;"/>
		<clipPath id="SVGID_84_">
			<use xlink:href="#SVGID_505_"  style="overflow:visible;"/>
		</clipPath>
	</g>
</g>
<g>
	<defs>
		<path id="SVGID_507_" d="M1577.5,1295.3c-1-0.4-2-0.5-3.1-0.2c-1.1,0.2-1.8,0.9-2.3,2.1c-0.3,1.3-0.8,2.9-1.7,4.6
			c-0.9,1.8-2,3.5-3.3,5.1c-1.3,1.6-2.8,2.9-4.5,4c-1.7,1.1-3.5,1.5-5.4,1.4c-1.6-0.1-2.7-0.7-3.4-1.8c-0.6-1.1-1-2.5-1-4.1
			c0-1.7,0.2-3.5,0.7-5.6c0.5-2.1,1.1-4.2,1.7-6.2c0.7-2.1,1.4-4,2.1-5.9c0.7-1.9,1.3-3.5,1.7-4.8c0.5-1.2,0.4-2.2-0.5-3
			c-0.8-0.8-1.9-1.4-3.1-1.8c-1.2-0.4-2.5-0.4-3.8-0.3s-2.1,0.7-2.5,1.5c-3.8-2.4-7.4-3.7-10.9-3.9c-3.5-0.2-6.7,0.4-9.6,1.7
			c-2.9,1.3-5.6,3.2-7.8,5.7c-2.3,2.5-4.1,5.2-5.5,8.1c-1.4,2.9-2.3,5.9-2.6,9c-0.4,3-0.1,5.8,0.8,8.3c0.9,2.5,2.5,4.6,4.8,6.2
			c2.3,1.6,5.4,2.4,9.3,2.4c1.7,0,3.4-0.3,5-0.8c1.6-0.5,3.1-1.1,4.4-1.8c1.3-0.7,2.5-1.4,3.6-2.2c1-0.8,1.8-1.4,2.4-1.9
			c0.4,1.7,1.2,3.1,2.2,4.3c1,1.2,2.2,2.1,3.5,2.9c1.3,0.7,2.7,1.3,4.1,1.7c1.4,0.4,2.8,0.5,4.2,0.5c3,0,5.8-0.8,8.4-2.3
			c2.6-1.5,5-3.3,7.1-5.5c2.1-2.2,3.8-4.5,5.1-6.9c1.3-2.4,2.2-4.6,2.7-6.4c0.4-0.7,0.4-1.4-0.2-2.2
			C1579.2,1296.2,1578.4,1295.6,1577.5,1295.3 M1543.3,1289.9c-0.3,1.4-0.8,2.9-1.3,4.6c-0.5,1.7-1.2,3.4-2.1,5.2
			c-0.8,1.8-1.9,3.4-3.1,4.8c-1.2,1.4-2.6,2.6-4.2,3.4c-1.6,0.8-3.4,1.2-5.4,1.1c-1-0.1-1.8-0.6-2.4-1.5c-0.5-0.9-0.8-2.1-0.9-3.6
			c0-1.5,0.1-3,0.5-4.8c0.4-1.7,1-3.4,1.8-5.1c0.8-1.7,1.8-3.2,2.9-4.6c1.2-1.4,2.5-2.5,4-3.3c1.5-0.8,3.2-1.1,4.9-1.1
			c1.8,0,3.7,0.7,5.8,2C1543.9,1287.5,1543.6,1288.5,1543.3,1289.9"/>
	</defs>
	<use xlink:href="#SVGID_507_"  style="overflow:visible;fill-rule:evenodd;clip-rule:evenodd;"/>
	<clipPath id="SVGID_86_">
		<use xlink:href="#SVGID_507_"  style="overflow:visible;"/>
	</clipPath>
	<g class="st48">
		<defs>
			<rect id="SVGID_509_" x="665.1" y="926.3" width="1461.5" height="713.7"/>
		</defs>
		<use xlink:href="#SVGID_509_"  style="overflow:visible;"/>
		<clipPath id="SVGID_88_">
			<use xlink:href="#SVGID_509_"  style="overflow:visible;"/>
		</clipPath>
	</g>
</g>
<g>
	<defs>
		<path id="SVGID_511_" d="M1852.2,1299c-0.7-0.6-1.6-1-2.7-1.2c-1.1-0.2-2.1-0.3-3-0.1c-1,0.2-1.6,0.7-1.8,1.5
			c-0.5,1.5-1.3,3-2.4,4.6c-1.1,1.6-2.5,3.1-4.1,4.5s-3.5,2.6-5.5,3.7c-2,1.1-4.2,1.9-6.4,2.3c-2.2,0.5-4.1,0.6-5.6,0.2
			c-1.5-0.4-2.6-1.1-3.5-2c-0.9-1-1.5-2.1-1.9-3.5c-0.4-1.4-0.6-2.8-0.7-4.2c3.6,0.2,6.9-0.3,9.7-1.4c2.8-1.1,5.3-2.7,7.2-4.6
			c2-1.9,3.5-4,4.5-6.4c1-2.4,1.6-4.7,1.7-7.1c0.1-2.2-0.4-4.1-1.3-5.6c-1-1.5-2.3-2.7-3.9-3.6c-1.6-0.8-3.5-1.3-5.6-1.5
			c-2.1-0.1-4.3,0.1-6.4,0.6c-2.6,0.7-4.8,1.7-6.7,3.2c-1.8,1.5-3.3,3.2-4.6,5.1c-1.2,1.9-2.2,4-2.9,6.3c-0.7,2.2-1.2,4.5-1.5,6.6
			c-0.3,2.1-0.5,4.1-0.5,6.1c-0.2,0.4-0.5,0.8-0.8,1.2c-1.1,1.6-2.5,3.1-4.1,4.5c-1.6,1.4-3.5,2.6-5.5,3.7c-2,1.1-4.2,1.9-6.4,2.3
			c-2.2,0.5-4.1,0.6-5.6,0.2c-1.5-0.4-2.6-1.1-3.5-2c-0.9-1-1.5-2.1-1.9-3.5c-0.4-1.4-0.6-2.8-0.7-4.2c3.6,0.2,6.9-0.3,9.7-1.4
			c2.8-1.1,5.3-2.7,7.2-4.6c2-1.9,3.5-4,4.5-6.4c1-2.4,1.6-4.7,1.7-7.1c0.1-2.2-0.4-4.1-1.3-5.6c-1-1.5-2.3-2.7-3.9-3.6
			c-1.6-0.8-3.5-1.3-5.6-1.5c-2.1-0.1-4.3,0.1-6.4,0.6c-2.6,0.7-4.8,1.7-6.7,3.2c-1.8,1.5-3.3,3.2-4.6,5.1c-1.2,1.9-2.2,4-2.9,6.3
			c-0.7,2.2-1.2,4.5-1.5,6.6c-0.2,1.2-0.3,2.4-0.4,3.6c-0.6,0.4-1.2,0.8-1.9,1.2c-2.2,1.3-4.5,2.5-7,3.6c-2.4,1.1-5,1.9-7.6,2.6
			c-2.6,0.7-5.3,1.1-8.1,1.2l6-46.7c0.4-1,0.2-1.9-0.6-2.6c-0.8-0.8-1.8-1.3-3-1.5c-1.2-0.3-2.5-0.3-3.9,0.1
			c-1.4,0.3-2.5,1.1-3.4,2.2c-0.4,1.8-0.9,4.2-1.4,7.3c-0.5,3.1-1,6.5-1.4,10.1c-0.5,3.7-1,7.4-1.4,11.3c-0.5,3.9-0.9,7.5-1.2,10.9
			c0,0.1,0,0.3,0,0.4c-0.6,0.3-1.1,0.7-1.7,1c-2.2,1.3-4.5,2.5-7,3.6c-2.4,1.1-5,1.9-7.6,2.6c-2.6,0.7-5.3,1.1-8.1,1.2l6-46.7
			c0.4-1,0.2-1.9-0.6-2.6c-0.8-0.8-1.8-1.3-3-1.5c-1.2-0.3-2.5-0.3-3.9,0.1c-1.4,0.3-2.5,1.1-3.4,2.2c-0.4,1.8-0.9,4.2-1.4,7.3
			c-0.5,3.1-1,6.5-1.4,10.1c-0.5,3.7-1,7.4-1.4,11.3c-0.5,3.9-0.9,7.5-1.2,10.9c0,0.1,0,0.1,0,0.2c-1,0.3-2.1,0.6-3.3,0.9
			c-1.2,0.3-2.6,0.4-4.1,0.5c0.3-0.8,0.5-1.8,0.6-2.8c0.2-1,0.3-2.1,0.4-3.2c0.1-1.1,0.1-2.2,0.1-3.4c0-1.1-0.1-2.2-0.2-3.1
			c-0.3-2-0.9-3.9-1.8-5.7c-0.9-1.8-2-3.3-3.5-4.5c-1.5-1.2-3.3-2-5.5-2.5c-2.2-0.4-4.8-0.3-7.7,0.4c-4.4-0.4-8.3-0.1-11.8,0.9
			c-3.5,1-6.5,2.5-9.1,4.4c-2.6,1.9-4.7,4.2-6.3,6.8c-1.6,2.6-2.7,5.3-3.3,8c-0.2,1.2-0.3,2.3-0.4,3.5c-1,1.5-2.1,2.8-3.3,3.9
			c-1.7,1.5-3.5,2.8-5.3,3.8c-1.8,1-3.6,1.7-5.4,2.3c-1.8,0.5-3.4,0.9-4.8,1.1c-1.7,0.2-3.3,0.3-4.8,0.1c-1.5-0.2-2.9-0.7-4.2-1.6
			c-1-0.7-1.8-1.7-2.4-3.2c-0.5-1.5-0.9-3.1-1-5c-0.1-1.9,0-3.8,0.3-5.8c0.3-2,0.8-3.9,1.5-5.7c0.7-1.8,1.6-3.4,2.7-4.9
			c1.1-1.4,2.4-2.4,3.8-3.1c0.8,0.1,1.3,0.5,1.5,1.1c0.2,0.6,0.2,1.4,0.1,2.3c-0.1,0.9-0.2,1.8-0.4,2.7c-0.2,0.9-0.3,1.7-0.3,2.3
			c0.3,1.3,0.9,2.3,1.9,3c0.9,0.7,2,1.1,3.1,1.2c1.2,0.1,2.3-0.1,3.4-0.6c1.1-0.5,2-1.3,2.7-2.5c0.1,0,0.2,0.1,0.3,0.1l1.3-8.9
			c0.4-1.2,0.1-2.3-0.8-3.2c-0.9-0.9-2.1-1.5-3.6-1.6c-1.9-2-4.4-3-7.5-3.1c-3.2-0.1-6.4,0.6-9.7,2.3c-2,1.1-3.9,2.6-5.4,4.5
			c-1.6,1.9-2.8,4-3.8,6.3c-1,2.3-1.7,4.8-2.1,7.3c-0.4,2.6-0.5,5.1-0.2,7.5c0.3,2.4,0.8,4.7,1.8,6.9c0.9,2.2,2.2,4,3.9,5.4
			c1.4,1.3,3,2.2,4.8,2.8c1.8,0.6,3.7,0.9,5.6,1.1c2,0.1,3.9,0.1,5.8-0.2c1.9-0.3,3.7-0.6,5.5-1.1c2.2-0.6,4.5-1.4,6.9-2.3
			c2.4-0.9,4.6-2.1,6.8-3.4c1.1-0.7,2.2-1.4,3.3-2.3c0.5,0.9,1,1.7,1.7,2.5c1.7,2.1,4.1,3.8,7,5.1c2.9,1.3,6.6,1.9,10.8,1.9
			c4.6,0,8.9-0.9,12.8-2.6c3.9-1.7,7.1-4.1,9.6-7.3c3.7,0,7.4-0.5,11-1.3c0,0.3-0.1,0.6-0.1,0.9c-0.3,2.5-0.4,4.2-0.4,5.1
			c-0.1,1.5-0.2,3.5-0.4,5.7c-0.2,2.3-0.4,4.7-0.4,7.2c-0.1,2.5,0.1,5,0.4,7.6c0.3,2.6,1,4.9,2,7c1,2.1,2.5,3.9,4.4,5.3
			c1.9,1.5,4.4,2.3,7.4,2.6c3.3,0.3,6.1-0.1,8.4-1.3c2.4-1.2,4.3-2.8,5.8-4.8c1.5-2,2.5-4.4,3.1-7.1c0.6-2.7,0.8-5.4,0.5-8.1
			c-0.3-2.7-0.9-5.2-2-7.6c-1.1-2.4-2.6-4.4-4.5-5.9c1.2-0.2,2.5-0.7,4.1-1.3c1.6-0.7,3.2-1.4,4.9-2.2c0.4-0.2,0.8-0.4,1.2-0.6
			c-0.2,1.7-0.2,2.8-0.2,3.5c-0.1,1.5-0.2,3.5-0.4,5.7c-0.2,2.3-0.4,4.7-0.4,7.2c-0.1,2.5,0.1,5,0.4,7.6c0.3,2.6,1,4.9,2,7
			c1,2.1,2.5,3.9,4.4,5.3c1.9,1.5,4.4,2.3,7.4,2.6c3.3,0.3,6.1-0.1,8.4-1.3c2.4-1.2,4.3-2.8,5.8-4.8c1.5-2,2.5-4.4,3.1-7.1
			c0.6-2.7,0.8-5.4,0.5-8.1c-0.3-2.7-0.9-5.2-2-7.6c-1.1-2.4-2.6-4.4-4.5-5.9c1.2-0.2,2.5-0.7,4.1-1.3c1.6-0.7,3.2-1.4,4.9-2.2
			c0.9-0.4,1.8-0.9,2.6-1.3c0.3,2.3,1,4.3,2.2,6c1.4,2.1,3.2,3.7,5.6,4.8c2.4,1.1,5.2,1.7,8.4,1.9c3.2,0.1,6.7-0.3,10.5-1.3
			c2.8-0.7,5.3-1.7,7.3-2.8c2.1-1.1,4-2.5,5.6-4.1c0.1-0.1,0.2-0.2,0.3-0.3c0.3,0.7,0.6,1.3,1,1.9c1.4,2.1,3.2,3.7,5.6,4.8
			c2.4,1.1,5.2,1.7,8.4,1.9c3.2,0.1,6.7-0.3,10.5-1.3c2.8-0.7,5.3-1.7,7.3-2.8c2.1-1.1,4-2.5,5.6-4.1c1.7-1.6,3.2-3.5,4.6-5.6
			c1.4-2.1,2.8-4.5,4.2-7.2C1853.2,1300.2,1852.9,1299.5,1852.2,1299 M1816.3,1294.8c0.2-1.1,0.5-2.2,0.9-3.4
			c0.4-1.2,0.9-2.4,1.4-3.5c0.6-1.1,1.2-2.1,2-2.9c0.8-0.8,1.6-1.4,2.4-1.8c0.9-0.4,1.7-0.3,2.6,0.1c1,0.4,1.6,1.3,1.8,2.7
			c0.2,1.4,0,2.8-0.7,4.4c-0.7,1.5-1.9,3-3.6,4.4c-1.7,1.4-4.1,2.3-7,2.7C1816,1296.8,1816.1,1295.9,1816.3,1294.8 M1777.6,1294.8
			c0.2-1.1,0.5-2.2,0.9-3.4c0.4-1.2,0.9-2.4,1.4-3.5c0.6-1.1,1.2-2.1,2-2.9c0.8-0.8,1.6-1.4,2.4-1.8c0.9-0.4,1.7-0.3,2.6,0.1
			c1,0.4,1.6,1.3,1.8,2.7c0.2,1.4,0,2.8-0.7,4.4c-0.7,1.5-1.9,3-3.6,4.4c-1.7,1.4-4.1,2.3-7,2.7
			C1777.3,1296.8,1777.4,1295.9,1777.6,1294.8 M1671.3,1308.2c-1,0.8-2.1,1.4-3.3,2c-1.2,0.6-2.5,1-3.7,1.3
			c-1.3,0.3-2.4,0.4-3.5,0.2c-2.9-0.4-5.1-1.3-6.6-2.7c-1.5-1.4-2.5-3.1-2.9-5c-0.4-1.9-0.4-3.9,0.1-6.1c0.5-2.2,1.4-4.2,2.6-6
			c1.2-1.9,2.7-3.4,4.4-4.8c1.7-1.3,3.6-2.2,5.7-2.5c-0.8,2.4-1,4.9-0.8,7.4c0.3,2.6,1.1,5,2.5,7.2c0.9,1.4,2,2.6,3.2,3.7
			c1.2,1.1,2.8,2.1,4.6,2.9C1673.1,1306.6,1672.3,1307.4,1671.3,1308.2 M1679.8,1294.1c-0.1,1.1-0.2,2.1-0.4,3
			c-0.2,0.9-0.5,1.4-0.9,1.7c-0.7-0.3-1.6-1-2.6-2.2c-1-1.2-1.8-2.5-2.4-4c-0.6-1.5-0.8-2.9-0.5-4.4c0.2-1.4,1.2-2.5,3-3.3
			c0.7-0.3,1.3-0.2,1.8,0.3c0.5,0.5,0.9,1.2,1.2,2.1c0.3,0.9,0.5,2,0.7,3.2C1679.9,1291.8,1679.9,1293,1679.8,1294.1 M1715.5,1334.1
			c-0.5,1.6-1.4,2.9-2.5,4c-1.2,1.1-2.6,1.7-4.3,1.7c-1.1,0-1.9-0.4-2.5-1.3c-0.6-0.9-1-2-1.2-3.4c-0.2-1.4-0.3-3-0.3-4.7
			c0-1.7,0.1-3.4,0.3-5.1c0.2-1.7,0.4-3.3,0.6-4.7c0.2-1.5,0.4-2.6,0.5-3.4c2.2,0.2,4,0.9,5.4,2.1c1.4,1.2,2.5,2.6,3.3,4.3
			c0.8,1.6,1.2,3.4,1.3,5.3C1716.3,1330.7,1716,1332.5,1715.5,1334.1 M1750.3,1334.1c-0.5,1.6-1.4,2.9-2.5,4
			c-1.2,1.1-2.6,1.7-4.3,1.7c-1.1,0-1.9-0.4-2.5-1.3c-0.6-0.9-1-2-1.2-3.4c-0.2-1.4-0.3-3-0.3-4.7c0-1.7,0.1-3.4,0.3-5.1
			c0.2-1.7,0.4-3.3,0.6-4.7c0.2-1.5,0.4-2.6,0.5-3.4c2.2,0.2,4,0.9,5.4,2.1c1.4,1.2,2.5,2.6,3.3,4.3c0.8,1.6,1.2,3.4,1.3,5.3
			C1751,1330.7,1750.8,1332.5,1750.3,1334.1"/>
	</defs>
	<use xlink:href="#SVGID_511_"  style="overflow:visible;fill-rule:evenodd;clip-rule:evenodd;"/>
	<clipPath id="SVGID_90_">
		<use xlink:href="#SVGID_511_"  style="overflow:visible;"/>
	</clipPath>
	<g class="st50">
		<defs>
			<rect id="SVGID_513_" x="665.1" y="926.3" width="1461.5" height="713.7"/>
		</defs>
		<use xlink:href="#SVGID_513_"  style="overflow:visible;"/>
		<clipPath id="SVGID_92_">
			<use xlink:href="#SVGID_513_"  style="overflow:visible;"/>
		</clipPath>
	</g>
</g>
<g>
	<defs>
		<path id="SVGID_515_" d="M218.6,1296.7c-1-2.2-2.4-4.2-4.1-5.9c-1.7-1.7-3.8-2.9-6.1-3.7c1-0.8,2-2.1,3-3.9c1-1.8,1.8-3.7,2.5-5.9
			c0.7-2.1,1.2-4.2,1.4-6.4c0.3-2.1,0.2-4-0.3-5.5c-1.1-3.8-2.8-6.8-5.1-9c-2.3-2.2-5.1-3.7-8.2-4.5c-3.1-0.8-6.5-1-10.3-0.5
			c-3.7,0.5-7.6,1.4-11.5,2.8c0-0.3,0-0.7,0.1-1c0.1-0.4,0.1-0.7,0.1-1.1c0-1-0.5-1.8-1.4-2.5c-1-0.7-2.1-1.1-3.3-1.2
			c-1.2-0.1-2.5,0.1-3.6,0.8c-1.2,0.7-2,1.9-2.4,3.7c-0.5,5.8-1,11.7-1.5,18c-0.5,6.2-1.1,12.5-1.6,18.8c-0.6,6.3-1.2,12.6-1.7,18.9
			c-0.6,6.2-1.2,12.2-1.7,18c0.2,1.7,0.7,3.1,1.4,4c0.8,1,1.7,1.5,2.7,1.7c1,0.2,2.1,0,3.2-0.5c1.1-0.5,2.1-1.5,2.9-2.8
			c2.6,1.4,5.4,2.3,8.6,2.7c3.2,0.4,6.4,0.4,9.7,0c3.3-0.4,6.5-1.2,9.7-2.4c3.2-1.2,6.1-2.6,8.7-4.3c2.6-1.7,4.8-3.7,6.6-5.9
			c1.8-2.2,3-4.6,3.6-7.2c0.6-2.6,0.7-5.2,0.5-7.9C220.3,1301.4,219.6,1298.9,218.6,1296.7z M178.9,1265.5c1.3-0.8,3-1.6,4.8-2.2
			c1.9-0.6,3.8-1.1,5.8-1.3c2-0.3,3.9-0.3,5.8-0.1c1.9,0.2,3.6,0.7,5,1.6c1.4,0.9,2.5,2.1,3.2,3.7c0.7,1.6,0.9,3.7,0.6,6.2
			c-0.3,2-1,3.7-2.4,5c-1.3,1.4-2.9,2.5-4.8,3.5c-1.9,0.9-3.9,1.7-6,2.2c-2.1,0.5-4.1,0.9-6.1,1.2c-2,0.3-3.6,0.4-5.1,0.5
			c-1.4,0.1-2.4,0.1-2.8,0.1L178.9,1265.5z M208.2,1310.3c-1.2,2.2-2.7,4.1-4.8,5.8c-2,1.6-4.4,3-7.1,4c-2.7,1-5.4,1.7-8.1,2.1
			c-2.7,0.4-5.4,0.3-7.9-0.1c-2.6-0.4-4.7-1.3-6.5-2.5l2-21c1.9-0.6,4.2-1.3,7-2c2.8-0.7,5.7-1.2,8.7-1.4c3-0.3,5.8-0.3,8.4,0.1
			c2.7,0.4,4.8,1.2,6.3,2.5c0.8,0.8,1.5,1.6,2.1,2.5c0.6,0.9,0.9,1.8,1.1,2.8C209.8,1305.6,209.4,1308.1,208.2,1310.3z"/>
	</defs>
	<linearGradient id="SVGID_94_" gradientUnits="userSpaceOnUse" x1="867.9399" y1="1297.6686" x2="113.9399" y2="1289.6686">
		<stop  offset="0" style="stop-color:#FFFFFF"/>
		<stop  offset="1" style="stop-color:#000000"/>
	</linearGradient>
	<use xlink:href="#SVGID_515_"  style="overflow:visible;fill-rule:evenodd;clip-rule:evenodd;fill:url(#SVGID_94_);"/>
	<clipPath id="SVGID_96_">
		<use xlink:href="#SVGID_515_"  style="overflow:visible;"/>
	</clipPath>
	<g class="st53">
		<defs>
			<rect id="SVGID_518_" x="-326.9" y="796.4" width="1461.5" height="974.3"/>
		</defs>
		<linearGradient id="SVGID_98_" gradientUnits="userSpaceOnUse" x1="868.037" y1="1288.5162" x2="114.037" y2="1280.5162">
			<stop  offset="0" style="stop-color:#FFFFFF"/>
			<stop  offset="1" style="stop-color:#000000"/>
		</linearGradient>
		<use xlink:href="#SVGID_518_"  style="overflow:visible;fill:url(#SVGID_98_);"/>
		<clipPath id="SVGID_100_">
			<use xlink:href="#SVGID_518_"  style="overflow:visible;"/>
		</clipPath>
	</g>
</g>
<g>
	<defs>
		<path id="SVGID_522_" d="M344.8,1305.7c-0.9-1-1.9-1.5-3.2-1.6c-1.2-0.1-2.5,0.6-3.8,2.1c-0.8,1.5-1.9,3-3.2,4.4
			c-1.3,1.4-2.6,2.7-4,3.8c-1.4,1.2-2.7,2.1-3.9,3c-1.2,0.8-2.2,1.4-2.9,1.8c-0.3-2-0.4-4.3-0.4-6.6c0-2.4,0-4.8,0.1-7.2
			c0.2-3.5,0.6-6.9,1.2-10.5c0.6-3.5,1.5-7,2.6-10.4c0-1.8-0.4-3.2-1.2-4.4c-0.8-1.1-1.8-1.8-3-2.1c-1.2-0.3-2.4-0.1-3.6,0.5
			c-1.2,0.6-2.3,1.7-3.2,3.3c-0.8,2.1-1.6,4.5-2.6,7.1c-1,2.6-2.1,5.3-3.4,8c-1.2,2.7-2.6,5.4-4.2,7.9c-1.5,2.6-3.2,4.8-5,6.8
			c-1.8,2-3.8,3.5-6,4.7c-2.1,1.1-4.5,1.6-7,1.5c-1.2-0.3-2-1.2-2.5-2.6c-0.5-1.4-0.8-3.2-0.9-5.3c-0.1-2.1,0-4.4,0.3-7
			c0.3-2.5,0.7-5,1.2-7.5c0.5-2.5,1-4.9,1.6-7.1c0.6-2.2,1.1-4.1,1.6-5.7c0.8-1.9,0.8-3.4,0-4.7c-0.8-1.2-1.8-2.1-3.2-2.5
			c-1.3-0.4-2.8-0.4-4.2,0c-1.5,0.4-2.5,1.4-3.2,3c-1.1,2.6-2.1,5.6-3,8.8c-0.9,3.3-1.6,6.6-2.2,10.1c-0.5,3.5-0.9,6.9-0.9,10.4
			c0,0.2,0,0.4,0,0.7c-1.4,3.7-2.7,6.5-4,8.4c-1.6,2.4-3.5,3.5-5.5,3.2c-0.9-0.4-1.5-1.3-1.8-2.7c-0.3-1.4-0.4-3.1-0.3-5.2
			c0.1-2,0.3-4.4,0.7-7c0.4-2.6,0.9-5.3,1.4-8.1c0.6-2.8,1.2-5.6,1.8-8.4c0.6-2.8,1.2-5.5,1.7-8c-0.1-2.2-0.7-4-2-5.1
			c-1.2-1.2-3-1.6-5.2-1.4c-1.5,0.6-2.7,1.5-3.4,2.5c-0.7,1-1.3,2.3-1.8,3.9c-0.3,0.8-0.6,2.5-1.2,5c-0.5,2.5-1.2,5.4-2,8.6
			c-0.8,3.2-1.7,6.6-2.8,10.1c-1.1,3.5-2.3,6.7-3.6,9.6c-1.3,2.8-2.8,5.1-4.4,6.9c-1.6,1.7-3.3,2.4-5.2,2.1c-1-0.2-1.7-1.2-2-3.2
			c-0.3-1.9-0.3-4.3-0.1-7.1c0.2-2.8,0.6-5.9,1.2-9.3c0.6-3.4,1.2-6.5,1.8-9.6c0.6-3,1.2-5.7,1.7-8c0.5-2.3,0.9-3.8,1.1-4.6
			c0-1.9-0.4-3.3-1.2-4.5c-0.8-1.1-1.8-1.8-3-2.1c-1.2-0.3-2.4-0.1-3.6,0.5c-1.2,0.6-2.3,1.7-3.2,3.3c-0.3,1.7-0.7,3.7-1.2,6
			c-0.5,2.3-1,4.6-1.5,7c-0.5,2.4-0.9,4.8-1.3,7.1c-0.4,2.3-0.7,4.3-0.9,6c-0.1,1.3-0.3,3-0.4,4.9c-0.2,2-0.2,4-0.2,6.2
			c0,2.2,0.2,4.3,0.5,6.5c0.3,2.1,0.9,4.1,1.7,5.9c0.8,1.8,2,3.3,3.5,4.4c1.5,1.2,3.4,1.8,5.7,1.9c2.4,0.1,4.4,0,6.2-0.5
			c1.8-0.5,3.4-1.2,4.8-2.3c1.4-1,2.8-2.2,3.9-3.6c1.2-1.4,2.4-2.9,3.5-4.6c1.1,2.4,2.5,4.3,4.2,5.7c1.7,1.3,3.6,2.1,5.5,2.4
			c1.9,0.3,3.9,0,5.9-0.8c2-0.8,3.8-2.2,5.4-4.1c1.1-1.2,2-2.5,3-4c0.4,0.7,0.8,1.4,1.3,2c1.6,2,3.7,3.5,6.4,4.2
			c2.9,0.8,5.7,0.9,8.4,0.4c2.8-0.5,5.4-1.4,7.9-2.8c2.5-1.3,4.8-3,7-4.8c2.1-1.9,4-3.9,5.6-5.9c-0.1,1.5-0.1,2.9-0.1,4.2
			c0,1.3,0,2.7-0.1,4.3c-3.2,2.2-6.2,4.9-9.1,8.1c-2.8,3.1-5.3,6.5-7.5,10c-2.1,3.6-3.8,7.2-5,10.8c-1.2,3.7-1.8,7.1-1.8,10.2
			c0,3.2,0.8,5.9,2.3,8.3c1.5,2.4,3.9,4.1,7.2,5.1c3.5,1.1,6.5,1.1,9.1,0.1c2.6-1,4.9-2.7,6.9-5.1c2-2.4,3.6-5.2,4.8-8.6
			c1.2-3.4,2.2-6.9,3-10.5c0.7-3.6,1.2-7.2,1.4-10.8c0.2-3.5,0.2-6.7,0-9.4c5.5-2.3,10-5.2,13.5-8.7c3.5-3.5,6.4-7.2,8.7-11.1
			c0.7-1,0.9-2.1,0.7-3.5C346.2,1307.8,345.6,1306.7,344.8,1305.7 M312.2,1347.4c-0.4,2.1-0.8,4.3-1.5,6.7c-0.6,2.3-1.4,4.5-2.3,6.4
			c-0.9,1.9-1.8,3.5-2.9,4.7c-1.1,1.2-2.2,1.7-3.4,1.5c-1-0.1-1.6-0.7-1.8-1.8c-0.3-1.1-0.3-2.4,0-4c0.3-1.6,0.8-3.4,1.5-5.4
			c0.7-2,1.6-4,2.7-6c1.1-2,2.3-3.9,3.6-5.7c1.3-1.8,2.8-3.3,4.2-4.6c0.3,0.4,0.5,1.3,0.4,2.9
			C312.8,1343.4,312.6,1345.3,312.2,1347.4"/>
	</defs>
	<linearGradient id="SVGID_102_" gradientUnits="userSpaceOnUse" x1="867.5737" y1="1332.181" x2="113.5737" y2="1324.181">
		<stop  offset="0" style="stop-color:#FFFFFF"/>
		<stop  offset="1" style="stop-color:#000000"/>
	</linearGradient>
	<use xlink:href="#SVGID_522_"  style="overflow:visible;fill-rule:evenodd;clip-rule:evenodd;fill:url(#SVGID_102_);"/>
	<clipPath id="SVGID_104_">
		<use xlink:href="#SVGID_522_"  style="overflow:visible;"/>
	</clipPath>
	<g style="clip-path:url(#SVGID_104_);">
		<defs>
			<rect id="SVGID_525_" x="-326.9" y="796.4" width="1461.5" height="974.3"/>
		</defs>
		<linearGradient id="SVGID_106_" gradientUnits="userSpaceOnUse" x1="868.037" y1="1288.5162" x2="114.037" y2="1280.5162">
			<stop  offset="0" style="stop-color:#FFFFFF"/>
			<stop  offset="1" style="stop-color:#000000"/>
		</linearGradient>
		<use xlink:href="#SVGID_525_"  style="overflow:visible;fill:url(#SVGID_106_);"/>
		<clipPath id="SVGID_108_">
			<use xlink:href="#SVGID_525_"  style="overflow:visible;"/>
		</clipPath>
	</g>
</g>
<g>
	<defs>
		<path id="SVGID_529_" d="M499.1,1303.5c-1.1-0.3-2.1-0.4-3-0.1c-1,0.3-1.6,0.9-1.8,2c-0.5,2-1.3,4.1-2.4,6.3
			c-1.1,2.1-2.5,4.2-4.1,6.1c-1.6,1.9-3.5,3.6-5.5,5.1c-2,1.5-4.2,2.5-6.4,3.2c-2.2,0.7-4.1,0.8-5.6,0.2c-1.5-0.5-2.6-1.5-3.5-2.8
			c-0.9-1.3-1.5-2.9-1.9-4.8c-0.4-1.9-0.6-3.8-0.7-5.8c3.6,0.3,6.9-0.4,9.7-2c2.8-1.6,5.3-3.6,7.2-6.2c2-2.6,3.5-5.5,4.5-8.7
			c1-3.2,1.6-6.4,1.7-9.6c0.1-3-0.4-5.6-1.3-7.6c-1-2.1-2.3-3.7-3.9-4.8c-1.6-1.2-3.5-1.8-5.6-2c-2.1-0.2-4.3,0.1-6.4,0.9
			c-2.6,0.9-4.8,2.4-6.7,4.4c-1.8,2-3.3,4.4-4.6,7c-1.2,2.7-2.2,5.5-2.9,8.6c-0.7,3.1-1.2,6.1-1.5,9.1c-0.3,2.7-0.4,5.2-0.5,7.7
			c-0.1,0.3-0.3,0.6-0.4,0.9c-1,2.3-2.1,4.5-3.5,6.7c-1.3,2.2-2.8,4-4.4,5.5c-1.6,1.5-3.3,2-5,1.5c-1-0.3-1.6-1.4-1.7-3.6
			c-0.1-2.1,0-4.7,0.3-7.9c0.3-3.1,0.7-6.5,1.1-10.2c0.4-3.6,0.6-7.1,0.6-10.5c0-2.9-0.5-5.6-1.6-8.3c-1.1-2.7-2.6-4.9-4.5-6.6
			c-1.9-1.8-4.1-2.9-6.6-3.5c-2.5-0.6-5.2-0.2-8.1,1.2c-2.9,1.3-5.2,3.2-6.9,5.7c-1.7,2.4-3.2,5-4.7,7.7c-0.5-2-1.3-4-2.3-5.7
			c-1-1.8-2.2-3.3-3.6-4.6c-1.4-1.3-3.1-2.3-4.8-3.1c-1.8-0.7-3.7-1.1-5.7-1.1c-1.9,0-3.7,0.4-5.3,1.1c-1.6,0.7-3.1,1.7-4.5,2.8
			c-1.3,1.2-2.6,2.4-3.6,3.9c-1.1,1.4-2,2.9-2.9,4.3c-0.1-1.7-0.3-3.1-0.4-4.4c-0.2-1.2-0.4-2.3-0.9-3.2c-0.4-0.9-1-1.5-1.8-2
			c-0.8-0.4-1.9-0.7-3.3-0.7c-0.7,0-1.4,0.1-2.1,0.4c-0.7,0.3-1.3,0.7-1.9,1.2c-0.5,0.5-1,1.1-1.2,1.9c-0.3,0.7-0.4,1.6-0.2,2.5
			c0.1,0.7,0.2,1.6,0.5,2.5c0.3,1,0.6,2.3,0.8,3.9c0.3,1.6,0.5,3.5,0.6,5.8c0.2,2.3,0.2,5.1,0.1,8.4c-0.1,3.3-0.3,7.2-0.7,11.6
			c-0.4,4.4-1.1,9.5-2,15.4c-0.1,1.3,0.4,2.4,1.5,3.3c1.2,0.8,2.5,1.3,3.9,1.4c1.5,0.1,2.9-0.1,4.2-0.8c1.3-0.6,2.1-1.8,2.3-3.4
			c0.2-3,0.6-6.2,1.1-9.6c0.5-3.4,1.2-6.8,2-10.1c0.8-3.3,1.7-6.5,2.7-9.5c1-3,2.2-5.7,3.4-8c1.2-2.3,2.5-4.1,3.9-5.5
			c1.3-1.4,2.8-2.1,4.2-2.1c1.8,0,3.2,0.8,4.2,2.4c1,1.6,1.7,3.7,2.1,6.3c0.4,2.6,0.6,5.4,0.6,8.4c0,3-0.2,6-0.4,8.8
			c-0.2,2.8-0.5,5.3-0.8,7.5c-0.3,2.2-0.5,3.7-0.6,4.6c0,1.5,0.6,2.6,1.7,3.5c1.1,0.9,2.4,1.4,3.7,1.5c1.4,0.2,2.7-0.1,3.9-0.8
			c1.2-0.7,1.9-1.8,2.1-3.4c0.6-4.6,1.5-9.2,2.6-13.9s2.4-8.8,3.8-12.5c1.4-3.7,3-6.7,4.8-9c1.8-2.3,3.6-3.5,5.6-3.5
			c1,0,1.8,0.7,2.4,2.1c0.5,1.4,0.8,3.3,0.8,5.8c0,1.8-0.1,3.6-0.4,5.5c-0.3,1.9-0.6,3.8-1,5.9c-0.4,2-0.7,4.1-1,6.2
			c-0.3,2.1-0.4,4.3-0.4,6.6c0,1.6,0.2,3.5,0.5,5.6c0.3,2.1,0.9,4.1,1.8,6c0.9,1.9,2.1,3.5,3.7,4.8c1.6,1.3,3.6,2,6,2
			c3.6,0,6.9-0.8,9.7-2.4c2.8-1.6,5.2-3.6,7.2-6.1c0.1-0.1,0.2-0.3,0.3-0.4c0.2,0.4,0.3,0.8,0.5,1.1c1.4,2.8,3.2,5,5.6,6.5
			c2.4,1.5,5.2,2.4,8.4,2.5c3.2,0.2,6.7-0.4,10.5-1.8c2.8-1,5.3-2.3,7.3-3.8c2.1-1.5,4-3.4,5.6-5.6c1.7-2.2,3.2-4.8,4.6-7.6
			c1.4-2.9,2.8-6.2,4.2-9.9c0.3-1,0-1.9-0.7-2.7C501.1,1304.4,500.2,1303.8,499.1,1303.5 M465.9,1299.6c0.2-1.5,0.5-3,0.9-4.7
			c0.4-1.6,0.9-3.2,1.4-4.8c0.6-1.5,1.2-2.9,2-4c0.8-1.1,1.6-1.9,2.4-2.4c0.9-0.5,1.7-0.4,2.6,0.1c1,0.6,1.6,1.8,1.8,3.6
			c0.2,1.9,0,3.8-0.7,6c-0.7,2.1-1.9,4.1-3.6,6c-1.7,1.9-4.1,3.1-7,3.6C465.7,1302.2,465.7,1301,465.9,1299.6"/>
	</defs>
	<linearGradient id="SVGID_110_" gradientUnits="userSpaceOnUse" x1="867.8253" y1="1308.4641" x2="113.8253" y2="1300.4641">
		<stop  offset="0" style="stop-color:#FFFFFF"/>
		<stop  offset="1" style="stop-color:#000000"/>
	</linearGradient>
	<use xlink:href="#SVGID_529_"  style="overflow:visible;fill-rule:evenodd;clip-rule:evenodd;fill:url(#SVGID_110_);"/>
	<clipPath id="SVGID_112_">
		<use xlink:href="#SVGID_529_"  style="overflow:visible;"/>
	</clipPath>
	<g class="st61">
		<defs>
			<rect id="SVGID_532_" x="-326.9" y="796.4" width="1461.5" height="974.3"/>
		</defs>
		<linearGradient id="SVGID_114_" gradientUnits="userSpaceOnUse" x1="868.037" y1="1288.5162" x2="114.037" y2="1280.5162">
			<stop  offset="0" style="stop-color:#FFFFFF"/>
			<stop  offset="1" style="stop-color:#000000"/>
		</linearGradient>
		<use xlink:href="#SVGID_532_"  style="overflow:visible;fill:url(#SVGID_114_);"/>
		<clipPath id="SVGID_116_">
			<use xlink:href="#SVGID_532_"  style="overflow:visible;"/>
		</clipPath>
	</g>
</g>
<g>
	<defs>
		<path id="SVGID_536_" d="M585.5,1300.1c-1-0.5-2-0.6-3.1-0.3c-1.1,0.3-1.8,1.3-2.3,2.9c-0.3,1.8-0.8,3.9-1.7,6.3
			c-0.9,2.4-2,4.7-3.3,6.9c-1.3,2.2-2.8,4-4.5,5.4c-1.7,1.4-3.5,2.1-5.4,2c-1.6-0.1-2.7-0.9-3.4-2.4c-0.6-1.5-1-3.4-1-5.7
			c0-2.3,0.2-4.8,0.7-7.7c0.5-2.8,1.1-5.7,1.7-8.5c0.7-2.8,1.4-5.5,2.1-8.1c0.7-2.6,1.3-4.8,1.7-6.6c0.5-1.6,0.4-3-0.5-4.1
			c-0.8-1.1-1.9-1.9-3.1-2.4c-1.2-0.5-2.5-0.6-3.8-0.4c-1.3,0.2-2.1,0.9-2.5,2.1c-3.8-3.3-7.4-5-10.9-5.3c-3.5-0.3-6.7,0.5-9.6,2.3
			c-2.9,1.8-5.6,4.4-7.8,7.8c-2.3,3.4-4.1,7.1-5.5,11.1c-1.4,4-2.3,8.1-2.6,12.2c-0.4,4.2-0.1,8,0.8,11.4c0.9,3.4,2.5,6.2,4.8,8.4
			c2.3,2.2,5.4,3.3,9.3,3.3c1.7,0,3.4-0.4,5-1.1c1.6-0.7,3.1-1.5,4.4-2.5c1.3-1,2.5-2,3.6-3c1-1.1,1.8-1.9,2.4-2.6
			c0.4,2.3,1.2,4.3,2.2,5.9c1,1.6,2.2,2.9,3.5,3.9c1.3,1,2.7,1.8,4.1,2.3c1.4,0.5,2.8,0.7,4.2,0.7c3,0,5.8-1,8.4-3.1
			c2.6-2,5-4.6,7.1-7.5c2.1-3,3.8-6.1,5.1-9.4c1.3-3.3,2.2-6.2,2.7-8.8c0.4-1,0.4-2-0.2-3C587.2,1301.4,586.4,1300.7,585.5,1300.1
			 M551.3,1292.8c-0.3,1.9-0.8,4-1.3,6.2c-0.5,2.3-1.2,4.6-2.1,7.1c-0.8,2.4-1.9,4.6-3.1,6.6c-1.2,2-2.6,3.5-4.2,4.7
			c-1.6,1.2-3.4,1.6-5.4,1.4c-1-0.1-1.8-0.8-2.4-2.1c-0.5-1.3-0.8-2.9-0.9-4.9c0-2,0.1-4.2,0.5-6.5c0.4-2.4,1-4.7,1.8-7
			c0.8-2.3,1.8-4.4,2.9-6.3c1.2-1.9,2.5-3.4,4-4.5c1.5-1.1,3.2-1.6,4.9-1.5c1.8,0.1,3.7,1,5.8,2.7
			C551.9,1289.6,551.6,1290.9,551.3,1292.8"/>
	</defs>
	<linearGradient id="SVGID_118_" gradientUnits="userSpaceOnUse" x1="867.8344" y1="1307.6154" x2="113.8343" y2="1299.6154">
		<stop  offset="0" style="stop-color:#FFFFFF"/>
		<stop  offset="1" style="stop-color:#000000"/>
	</linearGradient>
	<use xlink:href="#SVGID_536_"  style="overflow:visible;fill-rule:evenodd;clip-rule:evenodd;fill:url(#SVGID_118_);"/>
	<clipPath id="SVGID_120_">
		<use xlink:href="#SVGID_536_"  style="overflow:visible;"/>
	</clipPath>
	<g class="st65">
		<defs>
			<rect id="SVGID_539_" x="-326.9" y="796.4" width="1461.5" height="974.3"/>
		</defs>
		<linearGradient id="SVGID_122_" gradientUnits="userSpaceOnUse" x1="868.037" y1="1288.5162" x2="114.037" y2="1280.5162">
			<stop  offset="0" style="stop-color:#FFFFFF"/>
			<stop  offset="1" style="stop-color:#000000"/>
		</linearGradient>
		<use xlink:href="#SVGID_539_"  style="overflow:visible;fill:url(#SVGID_122_);"/>
		<clipPath id="SVGID_124_">
			<use xlink:href="#SVGID_539_"  style="overflow:visible;"/>
		</clipPath>
	</g>
</g>
<g>
	<defs>
		<path id="SVGID_543_" d="M860.2,1305.2c-0.7-0.8-1.6-1.4-2.7-1.7c-1.1-0.3-2.1-0.4-3-0.1c-1,0.3-1.6,0.9-1.8,2
			c-0.5,2-1.3,4.1-2.4,6.3c-1.1,2.1-2.5,4.2-4.1,6.1c-1.6,1.9-3.5,3.6-5.5,5.1c-2,1.5-4.2,2.5-6.4,3.2c-2.2,0.7-4.1,0.8-5.6,0.2
			c-1.5-0.5-2.6-1.5-3.5-2.8c-0.9-1.3-1.5-2.9-1.9-4.8c-0.4-1.9-0.6-3.8-0.7-5.8c3.6,0.3,6.9-0.4,9.7-2c2.8-1.6,5.3-3.6,7.2-6.2
			c2-2.6,3.5-5.5,4.5-8.7c1-3.2,1.6-6.4,1.7-9.6c0.1-3-0.4-5.6-1.3-7.6c-1-2.1-2.3-3.7-3.9-4.8c-1.6-1.2-3.5-1.8-5.6-2
			c-2.1-0.2-4.3,0.1-6.4,0.9c-2.6,0.9-4.8,2.4-6.7,4.4c-1.8,2-3.3,4.4-4.6,7c-1.2,2.7-2.2,5.5-2.9,8.6c-0.7,3.1-1.2,6.1-1.5,9.1
			c-0.3,2.9-0.5,5.7-0.5,8.3c-0.2,0.5-0.5,1.1-0.8,1.6c-1.1,2.1-2.5,4.2-4.1,6.1c-1.6,1.9-3.5,3.6-5.5,5.1c-2,1.5-4.2,2.5-6.4,3.2
			c-2.2,0.7-4.1,0.8-5.6,0.2c-1.5-0.5-2.6-1.5-3.5-2.8c-0.9-1.3-1.5-2.9-1.9-4.8c-0.4-1.9-0.6-3.8-0.7-5.8c3.6,0.3,6.9-0.4,9.7-2
			c2.8-1.6,5.3-3.6,7.2-6.2c2-2.6,3.5-5.5,4.5-8.7c1-3.2,1.6-6.4,1.7-9.6c0.1-3-0.4-5.6-1.3-7.6c-1-2.1-2.3-3.7-3.9-4.8
			c-1.6-1.2-3.5-1.8-5.6-2c-2.1-0.2-4.3,0.1-6.4,0.9c-2.6,0.9-4.8,2.4-6.7,4.4c-1.8,2-3.3,4.4-4.6,7c-1.2,2.7-2.2,5.5-2.9,8.6
			c-0.7,3.1-1.2,6.1-1.5,9.1c-0.2,1.7-0.3,3.3-0.4,4.9c-0.6,0.5-1.2,1.1-1.9,1.6c-2.2,1.8-4.5,3.4-7,4.8c-2.4,1.4-5,2.6-7.6,3.6
			c-2.6,0.9-5.3,1.5-8.1,1.7l6-63.7c0.4-1.3,0.2-2.5-0.6-3.6c-0.8-1-1.8-1.7-3-2.1c-1.2-0.4-2.5-0.4-3.9,0.1
			c-1.4,0.4-2.5,1.5-3.4,3.1c-0.4,2.4-0.9,5.8-1.4,10c-0.5,4.2-1,8.8-1.4,13.8c-0.5,5-1,10.1-1.4,15.5c-0.5,5.3-0.9,10.3-1.2,14.9
			c0,0.2,0,0.4,0,0.6c-0.6,0.5-1.1,1-1.7,1.4c-2.2,1.8-4.5,3.4-7,4.8c-2.4,1.4-5,2.6-7.6,3.6c-2.6,0.9-5.3,1.5-8.1,1.7l6-63.7
			c0.4-1.3,0.2-2.5-0.6-3.6c-0.8-1-1.8-1.7-3-2.1c-1.2-0.4-2.5-0.4-3.9,0.1c-1.4,0.4-2.5,1.5-3.4,3.1c-0.4,2.4-0.9,5.8-1.4,10
			c-0.5,4.2-1,8.8-1.4,13.8c-0.5,5-1,10.1-1.4,15.5c-0.5,5.3-0.9,10.3-1.2,14.9c0,0.1,0,0.2,0,0.3c-1,0.5-2.1,0.9-3.3,1.2
			c-1.2,0.4-2.6,0.6-4.1,0.6c0.3-1.2,0.5-2.4,0.6-3.8c0.2-1.4,0.3-2.9,0.4-4.4c0.1-1.5,0.1-3.1,0.1-4.6c0-1.5-0.1-2.9-0.2-4.2
			c-0.3-2.8-0.9-5.4-1.8-7.8c-0.9-2.5-2-4.5-3.5-6.2c-1.5-1.7-3.3-2.8-5.5-3.4c-2.2-0.6-4.8-0.4-7.7,0.6c-4.4-0.6-8.3-0.2-11.8,1.2
			c-3.5,1.4-6.5,3.4-9.1,6c-2.6,2.6-4.7,5.7-6.3,9.3c-1.6,3.6-2.7,7.2-3.3,10.9c-0.2,1.6-0.3,3.2-0.4,4.7c-1,2-2.1,3.8-3.3,5.3
			c-1.7,2.1-3.5,3.8-5.3,5.2c-1.8,1.3-3.6,2.4-5.4,3.1c-1.8,0.7-3.4,1.2-4.8,1.4c-1.7,0.3-3.3,0.4-4.8,0.1c-1.5-0.3-2.9-1-4.2-2.2
			c-1-0.9-1.8-2.3-2.4-4.3c-0.5-2-0.9-4.2-1-6.8c-0.1-2.5,0-5.2,0.3-7.9c0.3-2.8,0.8-5.4,1.5-7.8c0.7-2.5,1.6-4.7,2.7-6.6
			c1.1-1.9,2.4-3.3,3.8-4.2c0.8,0.1,1.3,0.6,1.5,1.5c0.2,0.9,0.2,1.9,0.1,3.1c-0.1,1.2-0.2,2.4-0.4,3.6c-0.2,1.2-0.3,2.3-0.3,3.1
			c0.3,1.7,0.9,3.1,1.9,4c0.9,1,2,1.5,3.1,1.7c1.2,0.2,2.3-0.1,3.4-0.8c1.1-0.7,2-1.8,2.7-3.4c0.1,0.1,0.2,0.1,0.3,0.1l1.3-12.2
			c0.4-1.7,0.1-3.1-0.8-4.4c-0.9-1.3-2.1-2-3.6-2.2c-1.9-2.7-4.4-4.1-7.5-4.3c-3.2-0.2-6.4,0.9-9.7,3.1c-2,1.5-3.9,3.5-5.4,6.1
			c-1.6,2.6-2.8,5.5-3.8,8.6c-1,3.2-1.7,6.5-2.1,10c-0.4,3.5-0.5,6.9-0.2,10.3c0.3,3.3,0.8,6.5,1.8,9.4c0.9,2.9,2.2,5.4,3.9,7.4
			c1.4,1.7,3,3,4.8,3.8c1.8,0.8,3.7,1.3,5.6,1.5c2,0.2,3.9,0.1,5.8-0.2c1.9-0.4,3.7-0.8,5.5-1.5c2.2-0.8,4.5-1.9,6.9-3.2
			c2.4-1.3,4.6-2.8,6.8-4.6c1.1-0.9,2.2-2,3.3-3.1c0.5,1.2,1,2.4,1.7,3.5c1.7,2.9,4.1,5.2,7,7c2.9,1.8,6.6,2.7,10.8,2.6
			c4.6-0.1,8.9-1.2,12.8-3.5c3.9-2.3,7.1-5.6,9.6-10c3.7,0,7.4-0.6,11-1.8c0,0.4-0.1,0.8-0.1,1.2c-0.3,3.4-0.4,5.7-0.4,6.9
			c-0.1,2.1-0.2,4.7-0.4,7.8c-0.2,3.1-0.4,6.4-0.4,9.8c-0.1,3.4,0.1,6.9,0.4,10.4c0.3,3.5,1,6.7,2,9.5c1,2.8,2.5,5.3,4.4,7.2
			c1.9,2,4.4,3.2,7.4,3.6c3.3,0.4,6.1-0.1,8.4-1.7c2.4-1.6,4.3-3.8,5.8-6.6c1.5-2.8,2.5-6,3.1-9.6c0.6-3.6,0.8-7.3,0.5-11
			c-0.3-3.7-0.9-7.2-2-10.4c-1.1-3.3-2.6-6-4.5-8.1c1.2-0.3,2.5-0.9,4.1-1.8c1.6-0.9,3.2-1.9,4.9-3c0.4-0.3,0.8-0.6,1.2-0.8
			c-0.2,2.3-0.2,3.9-0.2,4.8c-0.1,2.1-0.2,4.7-0.4,7.8c-0.2,3.1-0.4,6.4-0.4,9.8c-0.1,3.4,0.1,6.9,0.4,10.4c0.3,3.5,1,6.7,2,9.5
			c1,2.8,2.5,5.3,4.4,7.2c1.9,2,4.4,3.2,7.4,3.6c3.3,0.4,6.1-0.1,8.4-1.7c2.4-1.6,4.3-3.8,5.8-6.6c1.5-2.8,2.5-6,3.1-9.6
			c0.6-3.6,0.8-7.3,0.5-11c-0.3-3.7-0.9-7.2-2-10.4c-1.1-3.3-2.6-6-4.5-8.1c1.2-0.3,2.5-0.9,4.1-1.8c1.6-0.9,3.2-1.9,4.9-3
			c0.9-0.6,1.8-1.2,2.6-1.8c0.3,3.1,1,5.9,2.2,8.2c1.4,2.8,3.2,5,5.6,6.5c2.4,1.5,5.2,2.4,8.4,2.5c3.2,0.2,6.7-0.4,10.5-1.8
			c2.8-1,5.3-2.3,7.3-3.8c2.1-1.5,4-3.4,5.6-5.6c0.1-0.1,0.2-0.3,0.3-0.4c0.3,0.9,0.6,1.8,1,2.6c1.4,2.8,3.2,5,5.6,6.5
			c2.4,1.5,5.2,2.4,8.4,2.5c3.2,0.2,6.7-0.4,10.5-1.8c2.8-1,5.3-2.3,7.3-3.8c2.1-1.5,4-3.4,5.6-5.6c1.7-2.2,3.2-4.8,4.6-7.6
			c1.4-2.9,2.8-6.2,4.2-9.9C861.2,1306.9,860.9,1306,860.2,1305.2 M824.3,1299.6c0.2-1.5,0.5-3,0.9-4.7c0.4-1.6,0.9-3.2,1.4-4.8
			c0.6-1.5,1.2-2.9,2-4s1.6-1.9,2.4-2.4c0.9-0.5,1.7-0.4,2.6,0.1c1,0.6,1.6,1.8,1.8,3.6c0.2,1.9,0,3.8-0.7,6c-0.7,2.1-1.9,4.1-3.6,6
			c-1.7,1.9-4.1,3.1-7,3.6C824,1302.2,824.1,1301,824.3,1299.6 M785.6,1299.6c0.2-1.5,0.5-3,0.9-4.7c0.4-1.6,0.9-3.2,1.4-4.8
			c0.6-1.5,1.2-2.9,2-4s1.6-1.9,2.4-2.4c0.9-0.5,1.7-0.4,2.6,0.1c1,0.6,1.6,1.8,1.8,3.6c0.2,1.9,0,3.8-0.7,6c-0.7,2.1-1.9,4.1-3.6,6
			c-1.7,1.9-4.1,3.1-7,3.6C785.3,1302.2,785.4,1301,785.6,1299.6 M679.3,1317.8c-1,1.1-2.1,2-3.3,2.7c-1.2,0.8-2.5,1.3-3.7,1.7
			c-1.3,0.4-2.4,0.5-3.5,0.3c-2.9-0.6-5.1-1.8-6.6-3.7c-1.5-1.9-2.5-4.2-2.9-6.8c-0.4-2.6-0.4-5.4,0.1-8.3c0.5-2.9,1.4-5.7,2.6-8.2
			c1.2-2.5,2.7-4.7,4.4-6.5c1.7-1.8,3.6-3,5.7-3.4c-0.8,3.3-1,6.6-0.8,10.1c0.3,3.5,1.1,6.8,2.5,9.8c0.9,1.9,2,3.6,3.2,5.1
			c1.2,1.5,2.8,2.8,4.6,3.9C681.1,1315.6,680.3,1316.7,679.3,1317.8 M687.8,1298.6c-0.1,1.5-0.2,2.9-0.4,4.1
			c-0.2,1.2-0.5,1.9-0.9,2.3c-0.7-0.4-1.6-1.4-2.6-3c-1-1.6-1.8-3.4-2.4-5.4c-0.6-2-0.8-4-0.5-6c0.2-2,1.2-3.5,3-4.6
			c0.7-0.4,1.3-0.2,1.8,0.4c0.5,0.7,0.9,1.6,1.2,2.9c0.3,1.3,0.5,2.8,0.7,4.4C687.9,1295.5,687.9,1297.1,687.8,1298.6 M723.5,1353.1
			c-0.5,2.2-1.4,4-2.5,5.5c-1.2,1.5-2.6,2.3-4.3,2.4c-1.1,0.1-1.9-0.5-2.5-1.7c-0.6-1.2-1-2.8-1.2-4.7c-0.2-1.9-0.3-4.1-0.3-6.4
			c0-2.4,0.1-4.7,0.3-7c0.2-2.3,0.4-4.4,0.6-6.4c0.2-2,0.4-3.5,0.5-4.6c2.2,0.3,4,1.2,5.4,2.8c1.4,1.6,2.5,3.6,3.3,5.8
			c0.8,2.2,1.2,4.7,1.3,7.2C724.3,1348.6,724,1351,723.5,1353.1 M758.3,1353.1c-0.5,2.2-1.4,4-2.5,5.5c-1.2,1.5-2.6,2.3-4.3,2.4
			c-1.1,0.1-1.9-0.5-2.5-1.7c-0.6-1.2-1-2.8-1.2-4.7c-0.2-1.9-0.3-4.1-0.3-6.4c0-2.4,0.1-4.7,0.3-7c0.2-2.3,0.4-4.4,0.6-6.4
			c0.2-2,0.4-3.5,0.5-4.6c2.2,0.3,4,1.2,5.4,2.8c1.4,1.6,2.5,3.6,3.3,5.8c0.8,2.2,1.2,4.7,1.3,7.2
			C759,1348.6,758.8,1351,758.3,1353.1"/>
	</defs>
	<linearGradient id="SVGID_126_" gradientUnits="userSpaceOnUse" x1="867.7816" y1="1312.5895" x2="113.7815" y2="1304.5895">
		<stop  offset="0" style="stop-color:#FFFFFF"/>
		<stop  offset="1" style="stop-color:#000000"/>
	</linearGradient>
	<use xlink:href="#SVGID_543_"  style="overflow:visible;fill-rule:evenodd;clip-rule:evenodd;fill:url(#SVGID_126_);"/>
	<clipPath id="SVGID_128_">
		<use xlink:href="#SVGID_543_"  style="overflow:visible;"/>
	</clipPath>
	<g class="st69">
		<defs>
			<rect id="SVGID_546_" x="-326.9" y="796.4" width="1461.5" height="974.3"/>
		</defs>
		<linearGradient id="SVGID_130_" gradientUnits="userSpaceOnUse" x1="868.037" y1="1288.5162" x2="114.037" y2="1280.5162">
			<stop  offset="0" style="stop-color:#FFFFFF"/>
			<stop  offset="1" style="stop-color:#000000"/>
		</linearGradient>
		<use xlink:href="#SVGID_546_"  style="overflow:visible;fill:url(#SVGID_130_);"/>
		<clipPath id="SVGID_132_">
			<use xlink:href="#SVGID_546_"  style="overflow:visible;"/>
		</clipPath>
	</g>
</g>
</svg>
