<?xml version="1.0" encoding="UTF-8" standalone="no"?>
<svg
   xmlns:dc="http://purl.org/dc/elements/1.1/"
   xmlns:cc="http://creativecommons.org/ns#"
   xmlns:rdf="http://www.w3.org/1999/02/22-rdf-syntax-ns#"
   xmlns:svg="http://www.w3.org/2000/svg"
   xmlns="http://www.w3.org/2000/svg"
   xmlns:sodipodi="http://sodipodi.sourceforge.net/DTD/sodipodi-0.dtd"
   xmlns:inkscape="http://www.inkscape.org/namespaces/inkscape"
   viewBox="0 0 1333.3333 1333.3333"
   height="1333.3333"
   width="1333.3333"
   xml:space="preserve"
   id="svg2"
   version="1.1"
   sodipodi:docname="button-red.svg"
   inkscape:version="0.92.2 5c3e80d, 2017-08-06"><sodipodi:namedview
     pagecolor="#ffffff"
     bordercolor="#666666"
     borderopacity="1"
     objecttolerance="10"
     gridtolerance="10"
     guidetolerance="10"
     inkscape:pageopacity="0"
     inkscape:pageshadow="2"
     inkscape:window-width="1920"
     inkscape:window-height="1127"
     id="namedview72"
     showgrid="false"
     inkscape:zoom="0.35400002"
     inkscape:cx="630.53738"
     inkscape:cy="720.63467"
     inkscape:window-x="0"
     inkscape:window-y="0"
     inkscape:window-maximized="1"
     inkscape:current-layer="svg2" /><metadata
     id="metadata8"><rdf:RDF><cc:Work
         rdf:about=""><dc:format>image/svg+xml</dc:format><dc:type
           rdf:resource="http://purl.org/dc/dcmitype/StillImage" /><dc:title /></cc:Work></rdf:RDF></metadata><defs
     id="defs6"><marker
       style="overflow:visible;"
       id="Arrow1Lend"
       refX="0.0"
       refY="0.0"
       orient="auto"><path
         transform="scale(0.8) rotate(180) translate(12.5,0)"
         style="fill-rule:evenodd;stroke:#000000;stroke-width:1.0pt;"
         d="M 0.0,0.0 L 5.0,-5.0 L -12.5,0.0 L 5.0,5.0 L 0.0,0.0 z "
         id="path991" /></marker><clipPath
       id="clipPath18"
       clipPathUnits="userSpaceOnUse"><path
         id="path16"
         d="m 228.31,579.754 c -2.044,0 -3.7,-1.657 -3.7,-3.701 v 0 -3.7 h -3.7 c -2.043,0 -3.701,-1.658 -3.701,-3.701 v 0 -1.234 c 0,-2.043 1.658,-3.699 3.701,-3.699 v 0 h 3.7 v -3.701 c 0,-2.044 1.656,-3.701 3.7,-3.701 v 0 h 1.234 c 2.044,0 3.701,1.657 3.701,3.701 v 0 3.701 h 3.701 c 2.044,0 3.7,1.656 3.7,3.699 v 0 1.234 c 0,2.043 -1.656,3.701 -3.7,3.701 v 0 h -3.701 v 3.7 c 0,2.044 -1.657,3.701 -3.701,3.701 v 0 z" /></clipPath><clipPath
       id="clipPath60"
       clipPathUnits="userSpaceOnUse"><path
         id="path58"
         d="m 56.5,537.065 c 0,-7.858 6.371,-14.229 14.229,-14.229 v 0 c 7.859,0 14.23,6.371 14.23,14.229 v 0 c 0,7.859 -6.371,14.23 -14.23,14.23 v 0 c -7.858,0 -14.229,-6.371 -14.229,-14.23" /></clipPath><clipPath
       id="clipPath72"
       clipPathUnits="userSpaceOnUse"><path
         id="path70"
         d="m 212.188,494.377 c 0,-3.698 2.997,-6.697 6.695,-6.697 v 0 c 3.698,0 6.696,2.999 6.696,6.697 v 0 c 0,3.698 -2.998,6.696 -6.696,6.696 v 0 c -3.698,0 -6.695,-2.998 -6.695,-6.696" /></clipPath><clipPath
       id="clipPath82"
       clipPathUnits="userSpaceOnUse"><path
         id="path80"
         d="m 86.633,455.874 c 0,-3.698 2.998,-6.697 6.696,-6.697 v 0 c 3.698,0 6.696,2.999 6.696,6.697 v 0 c 0,3.698 -2.998,6.696 -6.696,6.696 v 0 c -3.698,0 -6.696,-2.998 -6.696,-6.696" /></clipPath><clipPath
       id="clipPath92"
       clipPathUnits="userSpaceOnUse"><path
         id="path90"
         d="m 262.741,541.367 c -1.17,-0.664 -1.978,-1.883 -2.419,-3.65 v 0 c -0.506,-5.69 -1.011,-11.601 -1.516,-17.731 v 0 c -0.507,-6.133 -1.043,-12.327 -1.613,-18.587 v 0 c -0.568,-6.258 -1.138,-12.469 -1.706,-18.631 v 0 c -0.569,-6.163 -1.138,-12.09 -1.707,-17.778 v 0 c 0.19,-1.707 0.663,-3.035 1.423,-3.982 v 0 c 0.758,-0.95 1.643,-1.518 2.654,-1.707 v 0 c 1.011,-0.19 2.071,-0.015 3.176,0.522 v 0 c 1.105,0.534 2.07,1.47 2.894,2.796 v 0 c 2.527,-1.391 5.372,-2.291 8.533,-2.703 v 0 c 3.16,-0.41 6.367,-0.41 9.625,0 v 0 c 3.254,0.412 6.462,1.186 9.623,2.324 v 0 c 3.16,1.137 6.036,2.561 8.629,4.266 v 0 c 2.59,1.707 4.771,3.652 6.543,5.832 v 0 c 1.769,2.182 2.939,4.536 3.507,7.063 v 0 c 0.569,2.593 0.726,5.184 0.474,7.775 v 0 c -0.253,2.592 -0.886,4.993 -1.896,7.207 v 0 c -1.011,2.212 -2.37,4.156 -4.077,5.832 v 0 c -1.707,1.675 -3.731,2.891 -6.069,3.65 v 0 c 1.012,0.822 2.007,2.118 2.988,3.888 v 0 c 0.979,1.768 1.816,3.698 2.512,5.784 v 0 c 0.695,2.087 1.171,4.187 1.422,6.306 v 0 c 0.252,2.116 0.156,3.934 -0.283,5.453 v 0 c -1.077,3.791 -2.767,6.762 -5.074,8.912 v 0 c -2.308,2.149 -4.993,3.634 -8.06,4.457 v 0 c -3.066,0.819 -6.448,0.995 -10.145,0.52 v 0 c -3.698,-0.473 -7.477,-1.405 -11.331,-2.797 v 0 c 0,0.316 0.032,0.648 0.095,0.996 v 0 c 0.062,0.346 0.094,0.711 0.094,1.09 v 0 c 0,0.949 -0.474,1.769 -1.422,2.466 v 0 c -0.948,0.694 -2.039,1.105 -3.27,1.233 v 0 c -0.196,0.019 -0.392,0.029 -0.587,0.029 v 0 c -1.029,0 -2.035,-0.277 -3.017,-0.835 m 7.063,-16.168 c 1.328,0.822 2.925,1.549 4.789,2.182 v 0 c 1.864,0.631 3.777,1.075 5.737,1.327 v 0 c 1.958,0.252 3.87,0.285 5.737,0.095 v 0 c 1.863,-0.19 3.508,-0.711 4.93,-1.564 v 0 c 1.422,-0.854 2.48,-2.086 3.176,-3.697 v 0 c 0.695,-1.613 0.886,-3.653 0.569,-6.118 v 0 c -0.253,-1.959 -1.029,-3.619 -2.323,-4.977 v 0 c -1.296,-1.36 -2.877,-2.497 -4.74,-3.414 v 0 c -1.865,-0.918 -3.84,-1.645 -5.926,-2.179 v 0 c -2.087,-0.539 -4.095,-0.935 -6.023,-1.186 v 0 c -1.928,-0.254 -3.602,-0.413 -5.024,-0.475 v 0 c -1.422,-0.064 -2.357,-0.095 -2.798,-0.095 v 0 z m 1.424,-55.799 c -2.529,0.41 -4.68,1.247 -6.449,2.512 v 0 l 1.993,20.765 c 1.831,0.632 4.137,1.28 6.92,1.944 v 0 c 2.781,0.663 5.642,1.138 8.581,1.422 v 0 c 2.941,0.285 5.72,0.251 8.345,-0.095 v 0 c 2.621,-0.349 4.693,-1.186 6.21,-2.513 v 0 c 0.822,-0.758 1.517,-1.58 2.087,-2.465 v 0 c 0.567,-0.885 0.916,-1.802 1.043,-2.751 v 0 c 0.314,-2.654 -0.096,-5.072 -1.234,-7.252 v 0 c -1.137,-2.18 -2.702,-4.079 -4.693,-5.69 v 0 c -1.991,-1.611 -4.314,-2.924 -6.969,-3.934 v 0 c -2.655,-1.013 -5.326,-1.692 -8.013,-2.039 v 0 c -1.232,-0.16 -2.447,-0.239 -3.646,-0.239 v 0 c -1.416,0 -2.807,0.11 -4.175,0.335" /></clipPath><clipPath
       id="clipPath102"
       clipPathUnits="userSpaceOnUse"><path
         id="path100"
         d="m 349.549,516.382 c -1.517,-0.632 -2.64,-1.455 -3.368,-2.466 v 0 c -0.727,-1.011 -1.312,-2.307 -1.754,-3.887 v 0 c -0.254,-0.823 -0.632,-2.466 -1.137,-4.932 v 0 c -0.507,-2.463 -1.153,-5.294 -1.944,-8.485 v 0 c -0.791,-3.194 -1.723,-6.527 -2.798,-10.004 v 0 c -1.074,-3.476 -2.275,-6.623 -3.601,-9.434 v 0 c -1.329,-2.813 -2.783,-5.073 -4.362,-6.779 v 0 c -1.581,-1.706 -3.288,-2.403 -5.121,-2.086 v 0 c -1.012,0.189 -1.659,1.232 -1.944,3.128 v 0 c -0.284,1.897 -0.332,4.235 -0.142,7.017 v 0 c 0.189,2.781 0.569,5.831 1.138,9.15 v 0 c 0.569,3.318 1.152,6.463 1.754,9.435 v 0 c 0.6,2.969 1.153,5.595 1.659,7.87 v 0 c 0.505,2.275 0.854,3.793 1.044,4.55 v 0 c 0,1.834 -0.414,3.302 -1.233,4.41 v 0 c -0.823,1.105 -1.819,1.801 -2.987,2.086 v 0 c -1.171,0.284 -2.371,0.127 -3.602,-0.474 v 0 c -1.234,-0.602 -2.293,-1.693 -3.178,-3.27 v 0 c -0.317,-1.708 -0.728,-3.684 -1.232,-5.928 v 0 c -0.508,-2.243 -0.996,-4.55 -1.469,-6.922 v 0 c -0.475,-2.37 -0.918,-4.693 -1.329,-6.969 v 0 c -0.411,-2.275 -0.711,-4.267 -0.901,-5.974 v 0 c -0.126,-1.326 -0.27,-2.955 -0.426,-4.882 v 0 c -0.158,-1.93 -0.238,-3.968 -0.238,-6.116 v 0 c 0,-2.15 0.158,-4.283 0.475,-6.4 v 0 c 0.315,-2.12 0.884,-4.063 1.707,-5.831 v 0 c 0.821,-1.771 1.974,-3.224 3.461,-4.362 v 0 c 1.485,-1.138 3.365,-1.769 5.642,-1.897 v 0 c 2.337,-0.125 4.376,0.047 6.115,0.522 v 0 c 1.739,0.473 3.318,1.217 4.741,2.228 v 0 c 1.422,1.01 2.717,2.212 3.888,3.603 v 0 c 1.168,1.39 2.323,2.906 3.462,4.551 v 0 c 1.073,-2.404 2.464,-4.266 4.171,-5.595 v 0 c 1.707,-1.326 3.509,-2.118 5.405,-2.369 v 0 c 1.895,-0.252 3.825,0.014 5.785,0.806 v 0 c 1.957,0.789 3.727,2.133 5.309,4.029 v 0 c 1.041,1.164 2.022,2.485 2.944,3.947 v 0 c 0.391,-0.684 0.807,-1.344 1.275,-1.954 v 0 c 1.55,-2.025 3.652,-3.415 6.306,-4.174 v 0 c 2.844,-0.758 5.625,-0.886 8.344,-0.379 v 0 c 2.718,0.505 5.309,1.423 7.774,2.749 v 0 c 2.466,1.329 4.757,2.923 6.876,4.79 v 0 c 2.116,1.864 3.965,3.806 5.546,5.831 v 0 c -0.064,-1.454 -0.095,-2.83 -0.095,-4.125 v 0 c 0,-1.297 -0.032,-2.701 -0.094,-4.22 v 0 c -3.162,-2.213 -6.148,-4.868 -8.96,-7.964 v 0 c -2.814,-3.097 -5.28,-6.4 -7.397,-9.909 v 0 c -2.118,-3.508 -3.778,-7.064 -4.977,-10.666 v 0 c -1.201,-3.605 -1.787,-6.97 -1.755,-10.1 v 0 c 0.031,-3.129 0.774,-5.862 2.227,-8.2 v 0 c 1.454,-2.34 3.825,-4.014 7.113,-5.026 v 0 c 3.414,-1.076 6.415,-1.106 9.009,-0.095 v 0 c 2.59,1.012 4.849,2.688 6.778,5.025 v 0 c 1.929,2.339 3.508,5.167 4.742,8.485 v 0 c 1.232,3.32 2.212,6.781 2.938,10.384 v 0 c 0.728,3.602 1.185,7.145 1.376,10.619 v 0 c 0.19,3.478 0.19,6.577 0,9.293 v 0 c 5.436,2.276 9.892,5.152 13.369,8.629 v 0 c 3.477,3.474 6.352,7.142 8.629,10.998 v 0 c 0.695,0.949 0.932,2.087 0.711,3.413 v 0 c -0.222,1.329 -0.758,2.466 -1.611,3.415 v 0 c -0.854,0.947 -1.897,1.484 -3.131,1.611 v 0 c -1.231,0.127 -2.481,-0.568 -3.744,-2.086 v 0 c -0.823,-1.517 -1.865,-2.97 -3.13,-4.361 v 0 c -1.264,-1.392 -2.576,-2.656 -3.935,-3.793 v 0 c -1.36,-1.137 -2.655,-2.118 -3.888,-2.939 v 0 c -1.231,-0.822 -2.196,-1.423 -2.891,-1.802 v 0 c -0.253,2.022 -0.396,4.202 -0.426,6.542 v 0 c -0.034,2.339 0.014,4.709 0.141,7.111 v 0 c 0.19,3.414 0.584,6.858 1.186,10.336 v 0 c 0.6,3.477 1.47,6.89 2.608,10.242 v 0 c 0,1.768 -0.413,3.207 -1.234,4.314 v 0 c -0.822,1.105 -1.817,1.801 -2.986,2.085 v 0 c -1.171,0.284 -2.37,0.127 -3.603,-0.473 v 0 c -1.233,-0.603 -2.291,-1.693 -3.176,-3.272 v 0 c -0.759,-2.086 -1.628,-4.425 -2.608,-7.016 v 0 c -0.981,-2.592 -2.087,-5.232 -3.319,-7.919 v 0 c -1.233,-2.688 -2.608,-5.294 -4.124,-7.822 v 0 c -1.519,-2.528 -3.177,-4.774 -4.98,-6.732 v 0 c -1.801,-1.96 -3.76,-3.494 -5.877,-4.599 v 0 c -2.12,-1.107 -4.409,-1.596 -6.875,-1.47 v 0 c -1.139,0.316 -1.96,1.17 -2.465,2.561 v 0 c -0.507,1.389 -0.807,3.13 -0.9,5.215 v 0 c -0.096,2.085 0,4.377 0.283,6.874 v 0 c 0.285,2.496 0.664,4.978 1.139,7.442 v 0 c 0.473,2.467 0.996,4.805 1.563,7.018 v 0 c 0.57,2.212 1.106,4.077 1.613,5.594 v 0 c 0.759,1.832 0.759,3.368 0,4.599 v 0 c -0.759,1.233 -1.802,2.054 -3.129,2.466 v 0 c -1.327,0.41 -2.719,0.393 -4.172,-0.048 v 0 c -1.454,-0.443 -2.498,-1.422 -3.129,-2.938 v 0 c -1.075,-2.594 -2.056,-5.5 -2.941,-8.724 v 0 c -0.884,-3.225 -1.595,-6.56 -2.133,-10.004 v 0 c -0.539,-3.446 -0.838,-6.86 -0.901,-10.242 v 0 c -0.004,-0.219 0.007,-0.43 0.006,-0.648 v 0 c -1.379,-3.675 -2.692,-6.452 -3.939,-8.311 v 0 c -1.612,-2.403 -3.432,-3.446 -5.454,-3.128 v 0 c -0.886,0.379 -1.468,1.262 -1.753,2.654 v 0 c -0.287,1.389 -0.38,3.097 -0.287,5.121 v 0 c 0.097,2.021 0.335,4.312 0.712,6.874 v 0 c 0.382,2.559 0.853,5.214 1.422,7.964 v 0 c 0.571,2.751 1.17,5.514 1.802,8.296 v 0 c 0.632,2.782 1.2,5.406 1.708,7.872 v 0 c -0.063,2.212 -0.712,3.901 -1.945,5.072 v 0 c -1.014,0.961 -2.361,1.442 -4.038,1.442 v 0 c -0.361,0 -0.736,-0.023 -1.128,-0.067 m 42.005,-91.028 c -0.949,0.128 -1.55,0.729 -1.801,1.802 v 0 c -0.254,1.077 -0.254,2.403 0,3.983 v 0 c 0.251,1.581 0.741,3.367 1.469,5.358 v 0 c 0.726,1.99 1.612,3.967 2.655,5.926 v 0 c 1.044,1.96 2.228,3.839 3.556,5.641 v 0 c 1.327,1.801 2.716,3.303 4.171,4.505 v 0 c 0.317,-0.379 0.458,-1.328 0.427,-2.846 v 0 c -0.034,-1.517 -0.222,-3.318 -0.569,-5.404 v 0 c -0.348,-2.086 -0.838,-4.282 -1.47,-6.591 v 0 c -0.632,-2.305 -1.375,-4.408 -2.227,-6.305 v 0 c -0.854,-1.895 -1.802,-3.427 -2.844,-4.598 v 0 c -0.899,-1.006 -1.857,-1.51 -2.871,-1.51 v 0 c -0.164,0 -0.33,0.013 -0.496,0.039" /></clipPath><clipPath
       id="clipPath112"
       clipPathUnits="userSpaceOnUse"><path
         id="path110"
         d="m 557.392,517.993 c -2.593,-0.885 -4.788,-2.322 -6.589,-4.313 v 0 c -1.803,-1.992 -3.305,-4.3 -4.504,-6.922 v 0 c -1.202,-2.624 -2.15,-5.453 -2.845,-8.487 v 0 c -0.697,-3.033 -1.202,-6.021 -1.517,-8.961 v 0 c -0.286,-2.638 -0.437,-5.16 -0.491,-7.595 v 0 c -0.135,-0.31 -0.266,-0.607 -0.41,-0.938 v 0 c -0.98,-2.245 -2.12,-4.442 -3.414,-6.59 v 0 c -1.296,-2.15 -2.734,-3.951 -4.314,-5.405 v 0 c -1.581,-1.454 -3.224,-1.96 -4.932,-1.516 v 0 c -1.01,0.251 -1.563,1.423 -1.657,3.508 v 0 c -0.095,2.086 0.014,4.677 0.331,7.775 v 0 c 0.316,3.096 0.679,6.449 1.091,10.052 v 0 c 0.41,3.602 0.614,7.046 0.614,10.334 v 0 c 0,2.845 -0.536,5.578 -1.611,8.202 v 0 c -1.075,2.622 -2.546,4.804 -4.409,6.543 v 0 c -1.865,1.738 -4.029,2.892 -6.494,3.46 v 0 c -2.465,0.57 -5.121,0.19 -7.964,-1.137 v 0 c -2.846,-1.328 -5.106,-3.193 -6.78,-5.595 v 0 c -1.677,-2.403 -3.21,-4.93 -4.599,-7.585 v 0 c -0.507,2.023 -1.248,3.901 -2.229,5.641 v 0 c -0.98,1.739 -2.18,3.255 -3.603,4.552 v 0 c -1.423,1.294 -3.02,2.306 -4.788,3.034 v 0 c -1.77,0.725 -3.635,1.09 -5.595,1.09 v 0 c -1.896,0 -3.65,-0.365 -5.262,-1.09 v 0 c -1.612,-0.728 -3.082,-1.659 -4.411,-2.797 v 0 c -1.325,-1.14 -2.527,-2.417 -3.602,-3.841 v 0 c -1.074,-1.421 -2.024,-2.829 -2.843,-4.219 v 0 c -0.13,1.644 -0.271,3.081 -0.427,4.315 v 0 c -0.159,1.232 -0.445,2.275 -0.855,3.128 v 0 c -0.411,0.854 -0.995,1.502 -1.754,1.944 v 0 c -0.759,0.441 -1.832,0.664 -3.222,0.664 v 0 c -0.697,0 -1.393,-0.142 -2.087,-0.426 v 0 c -0.697,-0.284 -1.314,-0.68 -1.849,-1.186 v 0 c -0.538,-0.508 -0.948,-1.123 -1.233,-1.849 v 0 c -0.286,-0.726 -0.362,-1.565 -0.236,-2.513 v 0 c 0.062,-0.696 0.236,-1.532 0.521,-2.512 v 0 c 0.284,-0.981 0.552,-2.262 0.805,-3.841 v 0 c 0.252,-1.58 0.458,-3.493 0.617,-5.736 v 0 c 0.158,-2.245 0.205,-4.994 0.142,-8.251 v 0 c -0.064,-3.255 -0.301,-7.063 -0.71,-11.424 v 0 c -0.413,-4.363 -1.061,-9.419 -1.945,-15.17 v 0 c -0.126,-1.328 0.379,-2.404 1.517,-3.225 v 0 c 1.138,-0.821 2.433,-1.295 3.887,-1.422 v 0 c 1.453,-0.126 2.83,0.127 4.125,0.758 v 0 c 1.296,0.633 2.039,1.738 2.229,3.319 v 0 c 0.189,2.971 0.553,6.13 1.09,9.482 v 0 c 0.537,3.349 1.201,6.668 1.991,9.955 v 0 c 0.791,3.287 1.69,6.416 2.703,9.388 v 0 c 1.01,2.972 2.133,5.593 3.366,7.87 v 0 c 1.233,2.276 2.513,4.092 3.84,5.452 v 0 c 1.329,1.359 2.717,2.038 4.173,2.038 v 0 c 1.77,0 3.142,-0.804 4.125,-2.416 v 0 c 0.977,-1.614 1.673,-3.685 2.086,-6.211 v 0 c 0.41,-2.53 0.599,-5.297 0.568,-8.297 v 0 c -0.033,-3.004 -0.158,-5.895 -0.38,-8.676 v 0 c -0.221,-2.783 -0.473,-5.264 -0.758,-7.444 v 0 c -0.285,-2.182 -0.491,-3.683 -0.616,-4.504 v 0 c 0,-1.454 0.553,-2.606 1.659,-3.46 v 0 c 1.105,-0.853 2.337,-1.36 3.698,-1.517 v 0 c 1.359,-0.159 2.639,0.095 3.839,0.759 v 0 c 1.202,0.663 1.897,1.784 2.086,3.366 v 0 c 0.632,4.549 1.503,9.116 2.608,13.699 v 0 c 1.105,4.584 2.37,8.691 3.794,12.327 v 0 c 1.422,3.635 3.001,6.606 4.74,8.914 v 0 c 1.738,2.306 3.587,3.46 5.548,3.46 v 0 c 1.01,0 1.785,-0.696 2.322,-2.085 v 0 c 0.536,-1.391 0.806,-3.287 0.806,-5.689 v 0 c 0,-1.771 -0.142,-3.588 -0.426,-5.453 v 0 c -0.285,-1.865 -0.616,-3.794 -0.996,-5.784 v 0 c -0.379,-1.992 -0.711,-4.03 -0.996,-6.116 v 0 c -0.284,-2.087 -0.426,-4.267 -0.426,-6.542 v 0 c 0,-1.58 0.157,-3.414 0.474,-5.5 v 0 c 0.315,-2.084 0.916,-4.063 1.801,-5.925 v 0 c 0.885,-1.866 2.101,-3.446 3.652,-4.741 v 0 c 1.548,-1.296 3.523,-1.944 5.925,-1.944 v 0 c 3.603,0 6.795,0.774 9.577,2.323 v 0 c 2.782,1.548 5.167,3.57 7.159,6.068 v 0 c 0.104,0.13 0.197,0.27 0.298,0.399 v 0 c 0.153,-0.368 0.287,-0.76 0.46,-1.11 v 0 c 1.359,-2.782 3.207,-4.93 5.547,-6.449 v 0 c 2.338,-1.516 5.087,-2.353 8.25,-2.512 v 0 c 3.16,-0.157 6.604,0.428 10.336,1.755 v 0 c 2.78,1.011 5.198,2.276 7.252,3.792 v 0 c 2.053,1.517 3.902,3.367 5.546,5.547 v 0 c 1.645,2.181 3.145,4.693 4.506,7.537 v 0 c 1.359,2.847 2.733,6.101 4.124,9.769 v 0 c 0.252,1.009 0.015,1.91 -0.711,2.701 v 0 c -0.727,0.789 -1.61,1.343 -2.655,1.66 v 0 c -1.044,0.314 -2.038,0.347 -2.988,0.094 v 0 c -0.947,-0.253 -1.549,-0.916 -1.8,-1.992 v 0 c -0.508,-2.022 -1.313,-4.092 -2.419,-6.209 v 0 c -1.108,-2.118 -2.465,-4.125 -4.076,-6.023 v 0 c -1.612,-1.895 -3.431,-3.571 -5.452,-5.024 v 0 c -2.023,-1.454 -4.141,-2.497 -6.354,-3.129 v 0 c -2.214,-0.696 -4.046,-0.775 -5.499,-0.236 v 0 c -1.454,0.535 -2.608,1.453 -3.461,2.748 v 0 c -0.854,1.295 -1.469,2.86 -1.848,4.695 v 0 c -0.381,1.832 -0.602,3.727 -0.664,5.688 v 0 c 3.602,-0.253 6.81,0.394 9.623,1.945 v 0 c 2.812,1.547 5.199,3.602 7.16,6.162 v 0 c 1.958,2.559 3.443,5.437 4.455,8.629 v 0 c 1.011,3.191 1.581,6.368 1.707,9.529 v 0 c 0.062,2.971 -0.379,5.483 -1.327,7.538 v 0 c -0.947,2.053 -2.229,3.652 -3.841,4.789 v 0 c -1.611,1.137 -3.461,1.801 -5.546,1.99 v 0 c -0.418,0.038 -0.836,0.057 -1.257,0.057 v 0 c -1.678,0 -3.378,-0.303 -5.096,-0.91 m -4.171,-26.454 c 0.188,1.453 0.473,2.988 0.852,4.599 v 0 c 0.379,1.612 0.853,3.177 1.423,4.693 v 0 c 0.568,1.518 1.231,2.829 1.991,3.936 v 0 c 0.759,1.105 1.565,1.895 2.418,2.37 v 0 c 0.853,0.473 1.721,0.426 2.608,-0.142 v 0 c 0.948,-0.569 1.53,-1.77 1.754,-3.603 v 0 c 0.22,-1.835 0,-3.793 -0.665,-5.879 v 0 c -0.664,-2.087 -1.848,-4.045 -3.555,-5.879 v 0 c -1.706,-1.834 -4.014,-3.033 -6.922,-3.603 v 0 c -0.127,0.883 -0.095,2.054 0.096,3.508" /></clipPath><clipPath
       id="clipPath122"
       clipPathUnits="userSpaceOnUse"><path
         id="path120"
         d="m 623.007,514.201 c -2.909,-1.77 -5.484,-4.33 -7.727,-7.681 v 0 c -2.245,-3.352 -4.062,-7.001 -5.453,-10.952 v 0 c -1.39,-3.95 -2.26,-7.981 -2.607,-12.09 v 0 c -0.349,-4.108 -0.08,-7.854 0.806,-11.235 v 0 c 0.885,-3.382 2.448,-6.148 4.694,-8.296 v 0 c 2.242,-2.149 5.293,-3.225 9.149,-3.225 v 0 c 1.707,0 3.351,0.347 4.931,1.043 v 0 c 1.58,0.697 3.034,1.518 4.362,2.466 v 0 c 1.326,0.947 2.497,1.944 3.509,2.987 v 0 c 1.009,1.043 1.801,1.911 2.37,2.608 v 0 c 0.442,-2.276 1.169,-4.206 2.18,-5.785 v 0 c 1.011,-1.579 2.166,-2.878 3.462,-3.886 v 0 c 1.293,-1.012 2.654,-1.754 4.076,-2.231 v 0 c 1.423,-0.473 2.798,-0.71 4.125,-0.71 v 0 c 2.971,0 5.751,1.012 8.344,3.035 v 0 c 2.591,2.022 4.914,4.504 6.97,7.442 v 0 c 2.054,2.941 3.745,6.037 5.071,9.294 v 0 c 1.329,3.254 2.214,6.146 2.655,8.676 v 0 c 0.443,0.948 0.364,1.943 -0.236,2.986 v 0 c -0.602,1.042 -1.391,1.816 -2.372,2.324 v 0 c -0.98,0.505 -1.99,0.615 -3.033,0.331 v 0 c -1.042,-0.285 -1.786,-1.249 -2.228,-2.892 v 0 c -0.252,-1.771 -0.822,-3.855 -1.706,-6.258 v 0 c -0.886,-2.402 -1.977,-4.679 -3.272,-6.827 v 0 c -1.297,-2.149 -2.782,-3.936 -4.456,-5.358 v 0 c -1.676,-1.423 -3.461,-2.071 -5.358,-1.942 v 0 c -1.58,0.125 -2.688,0.931 -3.318,2.417 v 0 c -0.634,1.486 -0.965,3.349 -0.996,5.594 v 0 c -0.032,2.242 0.19,4.772 0.663,7.585 v 0 c 0.475,2.813 1.044,5.609 1.707,8.393 v 0 c 0.664,2.78 1.343,5.452 2.041,8.012 v 0 c 0.693,2.559 1.261,4.725 1.706,6.494 v 0 c 0.505,1.58 0.346,2.923 -0.475,4.031 v 0 c -0.822,1.104 -1.849,1.895 -3.082,2.37 v 0 c -1.233,0.473 -2.482,0.6 -3.746,0.379 v 0 c -1.264,-0.222 -2.084,-0.901 -2.466,-2.038 v 0 c -3.729,3.224 -7.317,4.962 -10.76,5.215 v 0 c -0.429,0.031 -0.855,0.046 -1.276,0.046 v 0 c -2.958,0 -5.71,-0.773 -8.254,-2.322 m -1.233,-41.625 c -1.012,0.126 -1.786,0.82 -2.323,2.085 v 0 c -0.537,1.263 -0.821,2.877 -0.853,4.836 v 0 c -0.032,1.959 0.141,4.108 0.521,6.448 v 0 c 0.379,2.337 0.964,4.631 1.755,6.874 v 0 c 0.789,2.242 1.754,4.315 2.891,6.211 v 0 c 1.138,1.896 2.449,3.366 3.936,4.409 v 0 c 1.484,1.043 3.114,1.532 4.883,1.47 v 0 c 1.769,-0.064 3.665,-0.948 5.69,-2.655 v 0 c -0.13,-0.823 -0.349,-2.166 -0.665,-4.029 v 0 c -0.317,-1.867 -0.743,-3.923 -1.279,-6.164 v 0 c -0.539,-2.245 -1.218,-4.568 -2.039,-6.97 v 0 c -0.822,-2.402 -1.834,-4.568 -3.035,-6.494 v 0 c -1.201,-1.93 -2.575,-3.461 -4.124,-4.6 v 0 c -1.328,-0.975 -2.828,-1.462 -4.504,-1.462 v 0 c -0.28,0 -0.564,0.014 -0.854,0.041" /></clipPath><clipPath
       id="clipPath132"
       clipPathUnits="userSpaceOnUse"><path
         id="path130"
         d="m 797.332,541.415 c -1.359,-0.444 -2.481,-1.456 -3.366,-3.035 v 0 c -0.442,-2.403 -0.9,-5.689 -1.373,-9.861 v 0 c -0.476,-4.172 -0.949,-8.724 -1.423,-13.654 v 0 c -0.476,-4.931 -0.948,-10.02 -1.424,-15.265 v 0 c -0.473,-5.25 -0.884,-10.147 -1.232,-14.698 v 0 c -0.006,-0.092 -0.012,-0.175 -0.019,-0.266 v 0 c -0.994,-0.46 -2.077,-0.864 -3.252,-1.205 v 0 c -1.202,-0.348 -2.561,-0.553 -4.077,-0.615 v 0 c 0.253,1.138 0.457,2.403 0.616,3.793 v 0 c 0.158,1.389 0.286,2.844 0.38,4.362 v 0 c 0.095,1.515 0.125,3.034 0.095,4.55 v 0 c -0.034,1.519 -0.111,2.908 -0.236,4.173 v 0 c -0.319,2.717 -0.902,5.293 -1.754,7.728 v 0 c -0.855,2.432 -2.008,4.47 -3.462,6.115 v 0 c -1.455,1.644 -3.272,2.751 -5.454,3.319 v 0 c -2.179,0.568 -4.725,0.379 -7.632,-0.568 v 0 c -4.299,0.568 -8.17,0.172 -11.615,-1.186 v 0 c -3.446,-1.36 -6.433,-3.335 -8.961,-5.926 v 0 c -2.528,-2.594 -4.599,-5.642 -6.21,-9.15 v 0 c -1.612,-3.509 -2.687,-7.113 -3.225,-10.809 v 0 c -0.228,-1.567 -0.338,-3.128 -0.371,-4.684 v 0 c -0.978,-2.004 -2.05,-3.756 -3.232,-5.225 v 0 c -1.675,-2.087 -3.413,-3.793 -5.214,-5.121 v 0 c -1.802,-1.328 -3.589,-2.339 -5.357,-3.034 v 0 c -1.771,-0.697 -3.352,-1.17 -4.741,-1.422 v 0 c -1.644,-0.317 -3.225,-0.349 -4.742,-0.096 v 0 c -1.515,0.251 -2.908,0.98 -4.17,2.181 v 0 c -1.013,0.886 -1.788,2.308 -2.324,4.267 v 0 c -0.537,1.96 -0.853,4.187 -0.949,6.684 v 0 c -0.094,2.499 0,5.106 0.285,7.824 v 0 c 0.285,2.718 0.773,5.294 1.469,7.727 v 0 c 0.695,2.434 1.579,4.615 2.656,6.544 v 0 c 1.073,1.926 2.337,3.302 3.792,4.124 v 0 c 0.821,-0.128 1.328,-0.616 1.518,-1.469 v 0 c 0.189,-0.854 0.236,-1.866 0.142,-3.035 v 0 c -0.095,-1.171 -0.238,-2.371 -0.427,-3.602 v 0 c -0.19,-1.233 -0.284,-2.262 -0.284,-3.082 v 0 c 0.317,-1.707 0.931,-3.036 1.848,-3.983 v 0 c 0.916,-0.949 1.946,-1.502 3.083,-1.66 v 0 c 1.137,-0.158 2.258,0.111 3.367,0.806 v 0 c 1.103,0.694 2.005,1.801 2.701,3.32 v 0 c 0.063,-0.064 0.157,-0.096 0.284,-0.096 v 0 l 1.328,12.042 c 0.379,1.644 0.125,3.097 -0.76,4.362 v 0 c -0.885,1.264 -2.053,1.991 -3.506,2.18 v 0 c -1.836,2.655 -4.316,4.061 -7.444,4.221 v 0 c -3.13,0.157 -6.339,-0.871 -9.625,-3.082 v 0 c -2.023,-1.456 -3.809,-3.462 -5.358,-6.021 v 0 c -1.549,-2.561 -2.813,-5.405 -3.792,-8.534 v 0 c -0.981,-3.128 -1.675,-6.433 -2.086,-9.91 v 0 c -0.411,-3.477 -0.49,-6.858 -0.237,-10.145 v 0 c 0.252,-3.287 0.838,-6.385 1.755,-9.291 v 0 c 0.914,-2.909 2.195,-5.343 3.84,-7.301 v 0 c 1.39,-1.707 2.969,-2.957 4.739,-3.747 v 0 c 1.77,-0.79 3.619,-1.279 5.547,-1.468 v 0 c 1.929,-0.19 3.841,-0.11 5.739,0.236 v 0 c 1.895,0.346 3.697,0.836 5.403,1.47 v 0 c 2.212,0.821 4.489,1.865 6.829,3.129 v 0 c 2.336,1.263 4.581,2.781 6.732,4.552 v 0 c 1.129,0.931 2.217,1.946 3.27,3.035 v 0 c 0.48,-1.189 1.014,-2.339 1.659,-3.415 v 0 c 1.707,-2.843 4.013,-5.152 6.922,-6.922 v 0 c 2.907,-1.77 6.479,-2.621 10.714,-2.56 v 0 c 4.552,0.064 8.755,1.216 12.611,3.462 v 0 c 3.856,2.241 7.018,5.547 9.483,9.908 v 0 c 3.693,0 7.325,0.608 10.897,1.817 v 0 c -0.029,-0.383 -0.061,-0.785 -0.089,-1.154 v 0 c -0.251,-3.351 -0.379,-5.625 -0.379,-6.827 v 0 c -0.062,-2.087 -0.204,-4.662 -0.426,-7.727 v 0 c -0.222,-3.066 -0.364,-6.29 -0.426,-9.67 v 0 c -0.063,-3.383 0.062,-6.796 0.379,-10.243 v 0 c 0.316,-3.445 0.979,-6.574 1.991,-9.387 v 0 c 1.01,-2.812 2.447,-5.198 4.314,-7.159 v 0 c 1.864,-1.959 4.314,-3.129 7.349,-3.508 v 0 c 3.223,-0.441 6.004,0.128 8.344,1.707 v 0 c 2.336,1.581 4.234,3.744 5.689,6.495 v 0 c 1.453,2.751 2.479,5.926 3.081,9.53 v 0 c 0.601,3.602 0.773,7.221 0.522,10.857 v 0 c -0.253,3.634 -0.918,7.063 -1.991,10.286 v 0 c -1.076,3.225 -2.562,5.88 -4.457,7.967 v 0 c 1.138,0.314 2.496,0.915 4.078,1.801 v 0 c 1.577,0.884 3.207,1.88 4.883,2.987 v 0 c 0.411,0.272 0.816,0.558 1.227,0.837 v 0 c -0.153,-2.24 -0.231,-3.837 -0.231,-4.773 v 0 c -0.063,-2.087 -0.206,-4.662 -0.428,-7.727 v 0 c -0.22,-3.066 -0.364,-6.29 -0.426,-9.67 v 0 c -0.063,-3.383 0.062,-6.796 0.379,-10.243 v 0 c 0.316,-3.445 0.98,-6.574 1.991,-9.387 v 0 c 1.011,-2.812 2.449,-5.198 4.314,-7.159 v 0 c 1.864,-1.959 4.315,-3.129 7.349,-3.508 v 0 c 3.223,-0.441 6.004,0.128 8.344,1.707 v 0 c 2.339,1.581 4.235,3.744 5.691,6.495 v 0 c 1.452,2.751 2.477,5.926 3.08,9.53 v 0 c 0.6,3.602 0.773,7.221 0.522,10.857 v 0 c -0.254,3.634 -0.918,7.063 -1.991,10.286 v 0 c -1.077,3.225 -2.561,5.88 -4.458,7.967 v 0 c 1.139,0.314 2.497,0.915 4.078,1.801 v 0 c 1.579,0.884 3.207,1.88 4.883,2.987 v 0 c 0.871,0.574 1.736,1.168 2.6,1.778 v 0 c 0.324,-3.093 1.025,-5.803 2.14,-8.084 v 0 c 1.36,-2.783 3.208,-4.931 5.546,-6.449 v 0 c 2.34,-1.515 5.09,-2.354 8.252,-2.511 v 0 c 3.16,-0.157 6.604,0.426 10.335,1.754 v 0 c 2.78,1.011 5.198,2.275 7.252,3.792 v 0 c 2.054,1.518 3.903,3.367 5.547,5.546 v 0 c 0.096,0.127 0.187,0.264 0.278,0.392 v 0 c 0.293,-0.886 0.617,-1.737 1.004,-2.524 v 0 c 1.359,-2.783 3.207,-4.931 5.546,-6.449 v 0 c 2.338,-1.515 5.088,-2.354 8.25,-2.511 v 0 c 3.16,-0.157 6.605,0.426 10.336,1.754 v 0 c 2.781,1.011 5.199,2.275 7.253,3.792 v 0 c 2.053,1.518 3.903,3.367 5.546,5.546 v 0 c 1.644,2.183 3.144,4.695 4.504,7.539 v 0 c 1.36,2.845 2.734,6.099 4.125,9.767 v 0 c 0.253,1.011 0.015,1.911 -0.711,2.702 v 0 c -0.728,0.789 -1.612,1.342 -2.655,1.66 v 0 c -1.042,0.314 -2.037,0.346 -2.988,0.094 v 0 c -0.947,-0.253 -1.549,-0.917 -1.8,-1.991 v 0 c -0.507,-2.024 -1.313,-4.094 -2.418,-6.209 v 0 c -1.107,-2.12 -2.465,-4.127 -4.077,-6.023 v 0 c -1.612,-1.895 -3.431,-3.572 -5.451,-5.025 v 0 c -2.025,-1.455 -4.142,-2.498 -6.353,-3.128 v 0 c -2.214,-0.697 -4.048,-0.776 -5.501,-0.238 v 0 c -1.455,0.536 -2.608,1.453 -3.461,2.749 v 0 c -0.854,1.297 -1.468,2.86 -1.849,4.695 v 0 c -0.379,1.832 -0.601,3.727 -0.664,5.688 v 0 c 3.604,-0.253 6.812,0.393 9.624,1.944 v 0 c 2.812,1.549 5.2,3.604 7.161,6.164 v 0 c 1.958,2.558 3.443,5.435 4.455,8.627 v 0 c 1.01,3.193 1.58,6.368 1.707,9.53 v 0 c 0.061,2.971 -0.38,5.484 -1.328,7.539 v 0 c -0.947,2.053 -2.228,3.651 -3.839,4.788 v 0 c -1.613,1.139 -3.461,1.801 -5.549,1.991 v 0 c -2.084,0.19 -4.204,-0.096 -6.352,-0.852 v 0 c -2.592,-0.887 -4.788,-2.325 -6.588,-4.315 v 0 c -1.803,-1.992 -3.305,-4.301 -4.505,-6.922 v 0 c -1.202,-2.625 -2.151,-5.452 -2.846,-8.487 v 0 c -0.696,-3.033 -1.201,-6.021 -1.515,-8.961 v 0 c -0.308,-2.851 -0.476,-5.581 -0.512,-8.193 v 0 c -0.241,-0.522 -0.495,-1.044 -0.771,-1.571 v 0 c -1.106,-2.12 -2.465,-4.127 -4.076,-6.023 v 0 c -1.611,-1.895 -3.43,-3.572 -5.452,-5.025 v 0 c -2.023,-1.455 -4.141,-2.498 -6.352,-3.128 v 0 c -2.215,-0.697 -4.048,-0.776 -5.501,-0.238 v 0 c -1.454,0.536 -2.607,1.453 -3.461,2.749 v 0 c -0.852,1.297 -1.469,2.86 -1.848,4.695 v 0 c -0.38,1.832 -0.601,3.727 -0.664,5.688 v 0 c 3.602,-0.253 6.811,0.393 9.625,1.944 v 0 c 2.811,1.549 5.197,3.604 7.158,6.164 v 0 c 1.959,2.558 3.444,5.435 4.456,8.627 v 0 c 1.01,3.193 1.58,6.368 1.707,9.53 v 0 c 0.062,2.971 -0.379,5.484 -1.328,7.539 v 0 c -0.948,2.053 -2.228,3.651 -3.84,4.788 v 0 c -1.613,1.139 -3.461,1.801 -5.547,1.991 v 0 c -2.086,0.19 -4.204,-0.096 -6.353,-0.852 v 0 c -2.593,-0.887 -4.788,-2.325 -6.589,-4.315 v 0 c -1.802,-1.992 -3.305,-4.301 -4.504,-6.922 v 0 c -1.201,-2.625 -2.149,-5.452 -2.845,-8.487 v 0 c -0.697,-3.033 -1.201,-6.021 -1.516,-8.961 v 0 c -0.18,-1.657 -0.3,-3.264 -0.388,-4.842 v 0 c -0.611,-0.52 -1.206,-1.043 -1.842,-1.557 v 0 c -2.18,-1.77 -4.472,-3.365 -6.873,-4.789 v 0 c -2.404,-1.423 -4.901,-2.592 -7.492,-3.509 v 0 c -2.592,-0.916 -5.247,-1.47 -7.964,-1.659 v 0 l 5.88,62.961 c 0.379,1.327 0.188,2.496 -0.57,3.507 v 0 c -0.758,1.012 -1.739,1.707 -2.94,2.086 v 0 c -0.554,0.176 -1.125,0.263 -1.714,0.263 v 0 c -0.685,0 -1.395,-0.119 -2.127,-0.356 v 0 c -1.359,-0.444 -2.481,-1.456 -3.365,-3.035 v 0 c -0.443,-2.403 -0.901,-5.689 -1.374,-9.861 v 0 c -0.476,-4.172 -0.949,-8.724 -1.423,-13.654 v 0 c -0.475,-4.931 -0.948,-10.02 -1.422,-15.265 v 0 c -0.475,-5.25 -0.886,-10.147 -1.233,-14.698 v 0 c -0.016,-0.202 -0.028,-0.384 -0.044,-0.585 v 0 c -0.554,-0.468 -1.09,-0.941 -1.663,-1.406 v 0 c -2.18,-1.77 -4.474,-3.365 -6.874,-4.789 v 0 c -2.405,-1.423 -4.901,-2.592 -7.491,-3.509 v 0 c -2.592,-0.916 -5.249,-1.47 -7.966,-1.659 v 0 l 5.88,62.961 c 0.38,1.327 0.19,2.496 -0.568,3.507 v 0 c -0.759,1.012 -1.741,1.707 -2.941,2.086 v 0 c -0.554,0.176 -1.125,0.263 -1.714,0.263 v 0 c -0.685,0 -1.394,-0.119 -2.126,-0.356 M 907.18,491.539 c 0.191,1.453 0.475,2.988 0.854,4.599 v 0 c 0.38,1.611 0.854,3.177 1.423,4.693 v 0 c 0.569,1.518 1.231,2.83 1.991,3.935 v 0 c 0.759,1.106 1.565,1.897 2.418,2.371 v 0 c 0.853,0.474 1.722,0.427 2.608,-0.142 v 0 c 0.948,-0.57 1.531,-1.771 1.754,-3.603 v 0 c 0.221,-1.835 0,-3.792 -0.665,-5.879 v 0 c -0.664,-2.086 -1.848,-4.047 -3.555,-5.878 v 0 c -1.706,-1.836 -4.015,-3.036 -6.922,-3.604 v 0 c -0.126,0.884 -0.095,2.053 0.094,3.508 m -38.211,0 c 0.189,1.453 0.472,2.988 0.852,4.599 v 0 c 0.38,1.611 0.855,3.177 1.422,4.693 v 0 c 0.57,1.518 1.233,2.83 1.992,3.935 v 0 c 0.76,1.106 1.565,1.897 2.417,2.371 v 0 c 0.854,0.474 1.723,0.427 2.608,-0.142 v 0 c 0.948,-0.57 1.533,-1.771 1.755,-3.603 v 0 c 0.22,-1.835 0,-3.792 -0.664,-5.879 v 0 c -0.664,-2.086 -1.848,-4.047 -3.555,-5.878 v 0 c -1.706,-1.836 -4.015,-3.036 -6.922,-3.604 v 0 c -0.128,0.884 -0.095,2.053 0.095,3.508 M 753.668,468.878 c -2.845,0.567 -5.025,1.801 -6.541,3.698 v 0 c -1.518,1.896 -2.483,4.123 -2.894,6.683 v 0 c -0.411,2.561 -0.364,5.296 0.143,8.203 v 0 c 0.504,2.908 1.358,5.609 2.559,8.106 v 0 c 1.203,2.497 2.657,4.647 4.362,6.448 v 0 c 1.707,1.802 3.57,2.923 5.596,3.367 v 0 c -0.76,-3.224 -1.012,-6.56 -0.76,-10.003 v 0 c 0.253,-3.445 1.076,-6.685 2.465,-9.719 v 0 c 0.885,-1.835 1.945,-3.509 3.176,-5.025 v 0 c 1.233,-1.519 2.735,-2.814 4.507,-3.889 v 0 c -0.508,-1.075 -1.25,-2.134 -2.231,-3.177 v 0 c -0.98,-1.042 -2.07,-1.942 -3.27,-2.701 v 0 c -1.202,-0.759 -2.435,-1.328 -3.698,-1.707 v 0 c -0.843,-0.254 -1.628,-0.38 -2.358,-0.38 v 0 c -0.367,0 -0.718,0.032 -1.056,0.096 m 14.887,20.291 c -1.012,1.579 -1.801,3.367 -2.372,5.358 v 0 c -0.566,1.99 -0.743,3.949 -0.52,5.878 v 0 c 0.22,1.927 1.217,3.428 2.986,4.504 v 0 c 0.694,0.379 1.296,0.237 1.802,-0.427 v 0 c 0.506,-0.664 0.916,-1.628 1.233,-2.891 v 0 c 0.316,-1.267 0.536,-2.719 0.664,-4.363 v 0 c 0.126,-1.644 0.157,-3.223 0.095,-4.742 v 0 c -0.064,-1.515 -0.207,-2.859 -0.427,-4.028 v 0 c -0.222,-1.172 -0.522,-1.914 -0.901,-2.229 v 0 c -0.696,0.38 -1.549,1.358 -2.56,2.94 m 64.192,-56.607 c -0.568,1.202 -0.963,2.749 -1.185,4.645 v 0 c -0.222,1.898 -0.317,4.015 -0.285,6.354 v 0 c 0.031,2.339 0.128,4.646 0.285,6.921 v 0 c 0.157,2.276 0.348,4.395 0.57,6.353 v 0 c 0.22,1.961 0.393,3.475 0.52,4.551 v 0 c 2.148,-0.252 3.937,-1.184 5.357,-2.797 v 0 c 1.424,-1.611 2.514,-3.524 3.272,-5.737 v 0 c 0.759,-2.211 1.2,-4.598 1.329,-7.159 v 0 c 0.125,-2.559 -0.081,-4.913 -0.618,-7.063 v 0 c -0.537,-2.149 -1.375,-3.967 -2.513,-5.451 v 0 c -1.136,-1.486 -2.56,-2.261 -4.267,-2.325 v 0 c -0.053,-0.002 -0.106,-0.004 -0.157,-0.004 v 0 c -0.997,0 -1.767,0.57 -2.308,1.712 m -34.325,0 c -0.568,1.202 -0.964,2.749 -1.184,4.645 v 0 c -0.223,1.898 -0.317,4.015 -0.285,6.354 v 0 c 0.031,2.339 0.126,4.646 0.285,6.921 v 0 c 0.157,2.276 0.346,4.395 0.57,6.353 v 0 c 0.219,1.961 0.393,3.475 0.52,4.551 v 0 c 2.148,-0.252 3.936,-1.184 5.357,-2.797 v 0 c 1.423,-1.611 2.513,-3.524 3.272,-5.737 v 0 c 0.759,-2.211 1.2,-4.598 1.328,-7.159 v 0 c 0.125,-2.559 -0.081,-4.913 -0.617,-7.063 v 0 c -0.537,-2.149 -1.375,-3.967 -2.513,-5.451 v 0 c -1.137,-1.486 -2.56,-2.261 -4.267,-2.325 v 0 c -0.054,-0.002 -0.106,-0.004 -0.157,-0.004 v 0 c -0.997,0 -1.767,0.57 -2.309,1.712" /></clipPath></defs><g
     id="layer1"><rect
       ry="25"
       rx="25"
       y="480.22595"
       x="33.898304"
       height="367.23157"
       width="1259.887"
       id="rect942"
       style="opacity:1;fill:#dc4444;fill-opacity:1;fill-rule:evenodd;stroke:#dc4444;stroke-width:10;stroke-linecap:round;stroke-linejoin:round;stroke-miterlimit:4;stroke-dasharray:none;stroke-opacity:1" /></g><g
     style="display:inline"
     transform="matrix(1.3333333,0,0,-1.3333333,0,1333.3333)"
     id="g10"><g
       id="g12"><g
         clip-path="url(#clipPath18)"
         id="g14"><path
           id="path20"
           style="fill:#ffdd00;fill-opacity:1;fill-rule:nonzero;stroke:none"
           d="m 211.194,550.303 h 35.466 v 35.466 h -35.466 z" /></g></g><g
       transform="translate(153.4221,553.3965)"
       id="g22"><path
         id="path24"
         style="fill:#ff9100;fill-opacity:1;fill-rule:nonzero;stroke:none"
         d="m 0,0 -38.792,0.235 19.05,-121.02 h 4.156 38.1 4.156 L 45.718,0.235 Z" /></g><g
       transform="translate(153.4221,553.3965)"
       id="g26"><path
         id="path28"
         style="fill:#ffdd00;fill-opacity:1;fill-rule:nonzero;stroke:none"
         d="m 0,0 -38.792,0.235 19.05,-121.02 h 4.156 28.401 4.156 L 36.022,0.235 Z" /></g><path
       id="path30"
       style="fill:#ffffff;fill-opacity:1;fill-rule:nonzero;stroke:none"
       d="m 103.547,553.631 h 100.097 v 11.161 H 103.547 Z" /><path
       id="path32"
       style="fill:#000000;fill-opacity:1;fill-rule:nonzero;stroke:none"
       d="m 106.145,556.229 h 94.901 v 5.965 h -94.901 z m 100.096,-5.195 H 100.949 v 16.354 h 105.292 z" /><g
       transform="translate(160.3485,582.9273)"
       id="g34"><path
         id="path36"
         style="fill:#ffffff;fill-opacity:1;fill-rule:nonzero;stroke:none"
         d="m 0,0 h -14.2 -23.899 l -7.273,-16.74 H -14.2 0 31.173 L 23.9,0 Z" /></g><g
       transform="translate(118.9375,568.7842)"
       id="g38"><path
         id="path40"
         style="fill:#050505;fill-opacity:1;fill-rule:nonzero;stroke:none"
         d="M 0,0 H 68.623 L 63.606,11.547 H 5.016 Z M 76.545,-5.194 H -7.923 l 9.532,21.935 h 65.405 z" /></g><g
       transform="translate(128.9727,435.209)"
       id="g42"><path
         id="path44"
         style="fill:#000000;fill-opacity:1;fill-rule:nonzero;stroke:none"
         d="m 0,0 h 48.898 l 18.229,115.809 -42.691,-0.219 -42.665,0.219 z M 53.339,-5.194 H -4.44 l -19.871,126.23 48.76,-0.251 48.761,0.251 z" /></g><g
       transform="translate(154.8909,519.453)"
       id="g46"><path
         id="path48"
         style="fill:#ffffff;fill-opacity:1;fill-rule:nonzero;stroke:none"
         d="M 0,0 H -3.283 -48.92 l 8.537,-48.128 38.741,0.419 38.741,-0.419 L 45.635,0 Z" /></g><g
       transform="translate(153.2207,474.3408)"
       id="g50"><path
         id="path52"
         style="fill:#000000;fill-opacity:1;fill-rule:nonzero;stroke:none"
         d="m 0,0 36.597,-0.396 7.609,42.911 H -44.15 l 7.61,-42.911 z M 40.942,-5.638 0,-5.195 -40.887,-5.638 -50.348,47.709 H 50.404 Z" /></g><g
       id="g54"><g
         clip-path="url(#clipPath60)"
         id="g56"><g
           transform="translate(70.7295,542.9248)"
           id="g62"><path
             id="path64"
             style="fill:#eeeeee;fill-opacity:1;fill-rule:nonzero;stroke:none"
             d="m 0,0 c -3.23,0 -5.859,-2.629 -5.859,-5.859 0,-3.231 2.629,-5.86 5.859,-5.86 3.23,0 5.859,2.629 5.859,5.86 C 5.859,-2.629 3.23,0 0,0 m 0,-28.459 c -12.462,0 -22.6,10.138 -22.6,22.6 0,12.461 10.138,22.599 22.6,22.599 12.462,0 22.6,-10.138 22.6,-22.599 0,-12.462 -10.138,-22.6 -22.6,-22.6" /></g></g></g><g
       id="g66"><g
         clip-path="url(#clipPath72)"
         id="g68"><path
           id="path74"
           style="fill:#eeeeee;fill-opacity:1;fill-rule:nonzero;stroke:none"
           d="m 206.173,481.666 h 25.421 v 25.422 h -25.421 z" /></g></g><g
       id="g76"><g
         clip-path="url(#clipPath82)"
         id="g78"><path
           id="path84"
           style="fill:#ff813f;fill-opacity:1;fill-rule:nonzero;stroke:none"
           d="m 80.618,443.163 h 25.422 v 25.422 H 80.618 Z" /></g></g><g
       style="fill:#ffffff;fill-opacity:1"
       id="g86"><g
         style="fill:#ffffff;fill-opacity:1"
         clip-path="url(#clipPath92)"
         id="g88"><path
           id="path94"
           style="fill:#ffffff;fill-opacity:1;fill-rule:nonzero;stroke:none"
           d="m 247.766,453.212 h 69.227 v 95.005 h -69.227 z" /></g></g><g
       style="fill:#ffffff;fill-opacity:1"
       id="g96"><g
         style="fill:#ffffff;fill-opacity:1"
         clip-path="url(#clipPath102)"
         id="g98"><path
           id="path104"
           style="fill:#ffffff;fill-opacity:1;fill-rule:nonzero;stroke:none"
           d="M 306.363,408.46 H 441.312 V 522.463 H 306.363 Z" /></g></g><g
       style="fill:#ffffff;fill-opacity:1"
       id="g106"><g
         style="fill:#ffffff;fill-opacity:1"
         clip-path="url(#clipPath112)"
         id="g108"><path
           id="path114"
           style="fill:#ffffff;fill-opacity:1;fill-rule:nonzero;stroke:none"
           d="m 446.299,448.852 h 149.254 v 76.067 H 446.299 Z" /></g></g><g
       style="fill:#ffffff;fill-opacity:1"
       id="g116"><g
         style="fill:#ffffff;fill-opacity:1"
         clip-path="url(#clipPath122)"
         id="g118"><path
           id="path124"
           style="fill:#ffffff;fill-opacity:1;fill-rule:nonzero;stroke:none"
           d="m 601.058,451.199 h 79.163 v 71.339 h -79.163 z" /></g></g><g
       style="fill:#fffffe;fill-opacity:1"
       id="g126"><g
         style="fill:#fffffe;fill-opacity:1"
         clip-path="url(#clipPath132)"
         id="g128"><path
           id="path134"
           style="fill:#fffffe;fill-opacity:1;fill-rule:nonzero;stroke:none"
           d="M 685.402,412.369 H 949.514 V 547.786 H 685.402 Z" /></g></g></g></svg>